<svg xmlns="http://www.w3.org/2000/svg" width="32" height="100"
     viewBox="0 0 32 100" fill="none">
    <g opacity="1" transform="translate(0 0)  rotate(0)">
        <path id="矩形 2" fill-rule="evenodd" style="fill:#808080" opacity="1"
              d="M24 100C28.42 100 32 96.42 32 92L32 8C32 3.58 28.42 0 24 0L0 0L0 100L24 100Z"></path>
        <path id="直线 1 (轮廓)" fill-rule="evenodd" style="fill:#FFEB3B" opacity="1"
              d="M0 16.5L0 23.5L25 23.5C25.11 23.5 25.23 23.49 25.34 23.48C25.46 23.47 25.57 23.46 25.68 23.43C25.8 23.41 25.91 23.38 26.02 23.35C26.13 23.32 26.23 23.28 26.34 23.23C26.45 23.19 26.55 23.14 26.65 23.09C26.75 23.03 26.85 22.97 26.94 22.91C27.04 22.85 27.13 22.78 27.22 22.71C27.31 22.63 27.39 22.56 27.47 22.47C27.56 22.39 27.63 22.31 27.71 22.22C27.78 22.13 27.85 22.04 27.91 21.94C27.97 21.85 28.03 21.75 28.09 21.65C28.14 21.55 28.19 21.45 28.23 21.34C28.28 21.23 28.32 21.13 28.35 21.02C28.38 20.91 28.41 20.8 28.43 20.68C28.46 20.57 28.47 20.46 28.48 20.34C28.49 20.23 28.5 20.11 28.5 20C28.5 19.89 28.49 19.77 28.48 19.66C28.47 19.54 28.46 19.43 28.43 19.32C28.41 19.2 28.38 19.09 28.35 18.98C28.32 18.87 28.28 18.77 28.23 18.66C28.19 18.55 28.14 18.45 28.09 18.35C28.03 18.25 27.97 18.15 27.91 18.06C27.85 17.96 27.78 17.87 27.71 17.78C27.63 17.69 27.56 17.61 27.47 17.53C27.39 17.44 27.31 17.37 27.22 17.29C27.13 17.22 27.04 17.15 26.94 17.09C26.85 17.03 26.75 16.97 26.65 16.91C26.55 16.86 26.45 16.81 26.34 16.77C26.23 16.72 26.13 16.68 26.02 16.65C25.91 16.62 25.8 16.59 25.68 16.57C25.57 16.54 25.46 16.53 25.34 16.52C25.23 16.51 25.11 16.5 25 16.5L0 16.5Z"></path>
        <path id="直线 1 (轮廓)" fill-rule="evenodd" style="fill:#FFEB3B" opacity="1"
              d="M0 31.5L0 38.5L20 38.5C20.11 38.5 20.23 38.49 20.34 38.48C20.46 38.47 20.57 38.46 20.68 38.43C20.8 38.41 20.91 38.38 21.02 38.35C21.13 38.32 21.23 38.28 21.34 38.23C21.45 38.19 21.55 38.14 21.65 38.09C21.75 38.03 21.85 37.97 21.94 37.91C22.04 37.85 22.13 37.78 22.22 37.71C22.31 37.63 22.39 37.56 22.47 37.47C22.56 37.39 22.63 37.31 22.71 37.22C22.78 37.13 22.85 37.04 22.91 36.94C22.97 36.85 23.03 36.75 23.09 36.65C23.14 36.55 23.19 36.45 23.23 36.34C23.28 36.23 23.32 36.13 23.35 36.02C23.38 35.91 23.41 35.8 23.43 35.68C23.46 35.57 23.47 35.46 23.48 35.34C23.49 35.23 23.5 35.11 23.5 35C23.5 34.89 23.49 34.77 23.48 34.66C23.47 34.54 23.46 34.43 23.43 34.32C23.41 34.2 23.38 34.09 23.35 33.98C23.32 33.87 23.28 33.77 23.23 33.66C23.19 33.55 23.14 33.45 23.09 33.35C23.03 33.25 22.97 33.15 22.91 33.06C22.85 32.96 22.78 32.87 22.71 32.78C22.63 32.69 22.56 32.61 22.47 32.53C22.39 32.44 22.31 32.37 22.22 32.29C22.13 32.22 22.04 32.15 21.94 32.09C21.85 32.03 21.75 31.97 21.65 31.91C21.55 31.86 21.45 31.81 21.34 31.77C21.23 31.72 21.13 31.68 21.02 31.65C20.91 31.62 20.8 31.59 20.68 31.57C20.57 31.54 20.46 31.53 20.34 31.52C20.23 31.51 20.11 31.5 20 31.5L0 31.5Z"></path>
        <path id="直线 1 (轮廓)" fill-rule="evenodd" style="fill:#FFEB3B" opacity="1"
              d="M0 46.5L0 53.5L25 53.5C25.11 53.5 25.23 53.49 25.34 53.48C25.46 53.47 25.57 53.46 25.68 53.43C25.8 53.41 25.91 53.38 26.02 53.35C26.13 53.32 26.23 53.28 26.34 53.23C26.45 53.19 26.55 53.14 26.65 53.09C26.75 53.03 26.85 52.97 26.94 52.91C27.04 52.85 27.13 52.78 27.22 52.71C27.31 52.63 27.39 52.56 27.47 52.47C27.56 52.39 27.63 52.31 27.71 52.22C27.78 52.13 27.85 52.04 27.91 51.94C27.97 51.85 28.03 51.75 28.09 51.65C28.14 51.55 28.19 51.45 28.23 51.34C28.28 51.23 28.32 51.13 28.35 51.02C28.38 50.91 28.41 50.8 28.43 50.68C28.46 50.57 28.47 50.46 28.48 50.34C28.49 50.23 28.5 50.11 28.5 50C28.5 49.89 28.49 49.77 28.48 49.66C28.47 49.54 28.46 49.43 28.43 49.32C28.41 49.2 28.38 49.09 28.35 48.98C28.32 48.87 28.28 48.77 28.23 48.66C28.19 48.55 28.14 48.45 28.09 48.35C28.03 48.25 27.97 48.15 27.91 48.06C27.85 47.96 27.78 47.87 27.71 47.78C27.63 47.69 27.56 47.61 27.47 47.53C27.39 47.44 27.31 47.37 27.22 47.29C27.13 47.22 27.04 47.15 26.94 47.09C26.85 47.03 26.75 46.97 26.65 46.91C26.55 46.86 26.45 46.81 26.34 46.77C26.23 46.72 26.13 46.68 26.02 46.65C25.91 46.62 25.8 46.59 25.68 46.57C25.57 46.54 25.46 46.53 25.34 46.52C25.23 46.51 25.11 46.5 25 46.5L0 46.5Z"></path>
        <path id="直线 1 (轮廓)" fill-rule="evenodd" style="fill:#FFEB3B" opacity="1"
              d="M0 76.5L0 83.5L15 83.5C15.11 83.5 15.23 83.49 15.34 83.48C15.46 83.47 15.57 83.46 15.68 83.43C15.8 83.41 15.91 83.38 16.02 83.35C16.13 83.32 16.23 83.28 16.34 83.23C16.45 83.19 16.55 83.14 16.65 83.09C16.75 83.03 16.85 82.97 16.94 82.91C17.04 82.85 17.13 82.78 17.22 82.71C17.31 82.63 17.39 82.56 17.47 82.47C17.56 82.39 17.63 82.31 17.71 82.22C17.78 82.13 17.85 82.04 17.91 81.94C17.97 81.85 18.03 81.75 18.09 81.65C18.14 81.55 18.19 81.45 18.23 81.34C18.28 81.23 18.32 81.13 18.35 81.02C18.38 80.91 18.41 80.8 18.43 80.68C18.46 80.57 18.47 80.46 18.48 80.34C18.49 80.23 18.5 80.11 18.5 80C18.5 79.89 18.49 79.77 18.48 79.66C18.47 79.54 18.46 79.43 18.43 79.32C18.41 79.2 18.38 79.09 18.35 78.98C18.32 78.87 18.28 78.77 18.23 78.66C18.19 78.55 18.14 78.45 18.09 78.35C18.03 78.25 17.97 78.15 17.91 78.06C17.85 77.96 17.78 77.87 17.71 77.78C17.63 77.69 17.56 77.61 17.47 77.53C17.39 77.44 17.31 77.37 17.22 77.29C17.13 77.22 17.04 77.15 16.94 77.09C16.85 77.03 16.75 76.97 16.65 76.91C16.55 76.86 16.45 76.81 16.34 76.77C16.23 76.72 16.13 76.68 16.02 76.65C15.91 76.62 15.8 76.59 15.68 76.57C15.57 76.54 15.46 76.53 15.34 76.52C15.23 76.51 15.11 76.5 15 76.5L0 76.5Z"></path>
        <path id="直线 1 (轮廓)" fill-rule="evenodd" style="fill:#FFEB3B" opacity="1"
              d="M0 61.5L0 68.5L25 68.5C25.11 68.5 25.23 68.49 25.34 68.48C25.46 68.47 25.57 68.46 25.68 68.43C25.8 68.41 25.91 68.38 26.02 68.35C26.13 68.32 26.23 68.28 26.34 68.23C26.45 68.19 26.55 68.14 26.65 68.09C26.75 68.03 26.85 67.97 26.94 67.91C27.04 67.85 27.13 67.78 27.22 67.71C27.31 67.63 27.39 67.56 27.47 67.47C27.56 67.39 27.63 67.31 27.71 67.22C27.78 67.13 27.85 67.04 27.91 66.94C27.97 66.85 28.03 66.75 28.09 66.65C28.14 66.55 28.19 66.45 28.23 66.34C28.28 66.23 28.32 66.13 28.35 66.02C28.38 65.91 28.41 65.8 28.43 65.68C28.46 65.57 28.47 65.46 28.48 65.34C28.49 65.23 28.5 65.11 28.5 65C28.5 64.89 28.49 64.77 28.48 64.66C28.47 64.54 28.46 64.43 28.43 64.32C28.41 64.2 28.38 64.09 28.35 63.98C28.32 63.87 28.28 63.77 28.23 63.66C28.19 63.55 28.14 63.45 28.09 63.35C28.03 63.25 27.97 63.15 27.91 63.06C27.85 62.96 27.78 62.87 27.71 62.78C27.63 62.69 27.56 62.61 27.47 62.53C27.39 62.44 27.31 62.37 27.22 62.29C27.13 62.22 27.04 62.15 26.94 62.09C26.85 62.03 26.75 61.97 26.65 61.91C26.55 61.86 26.45 61.81 26.34 61.77C26.23 61.72 26.13 61.68 26.02 61.65C25.91 61.62 25.8 61.59 25.68 61.57C25.57 61.54 25.46 61.53 25.34 61.52C25.23 61.51 25.11 61.5 25 61.5L0 61.5Z"></path>
    </g>
</svg>