<svg xmlns="http://www.w3.org/2000/svg" width="260" height="50"
     viewBox="0 0 260 50" fill="none">
    <g opacity="1" transform="translate(0 0)  rotate(0)">
        <path id="矩形 1 (轮廓)" fill-rule="evenodd" fill="url(#linear_0)" opacity="1"
              d="M256,50h-252c-2.21,0 -4,-1.79 -4,-4v-42c0,-2.21 1.79,-4 4,-4h252c2.21,0 4,1.79 4,4v42c0,2.21 -1.79,4 -4,4zM256,48c1.11,0 2,-0.9 2,-2v-42c0,-1.1 -0.89,-2 -2,-2h-252c-1.1,0 -2,0.9 -2,2v42c0,1.1 0.9,2 2,2z"></path>
        <g id="文本 1" filter="url(#filter_2)">
            <path id="文本 1" fill-rule="evenodd" fill="url(#linear_1)" opacity="1"
                  d="M86.9741,28.84c-0.24,1.78 -0.69,3.13 -0.69,3.13c-0.46,1.36 -1.22,2.11 -1.22,2.11c-0.75,0.76 -1.83,0.76 -1.83,0.76c-0.82,0 -1.21,-0.44 -1.21,-0.44c-0.4,-0.45 -0.52,-1.02 -0.52,-1.02c-0.43,0.67 -1.01,1.08 -1.01,1.08c-0.57,0.4 -1.25,0.4 -1.25,0.4c-0.64,0 -1.2,-0.57 -1.2,-0.57c-0.55,-0.58 -0.74,-1.86 -0.74,-1.86c-0.19,-1.29 0.14,-3.47 0.14,-3.47c0.41,-2.62 1.41,-4 1.41,-4c0.99,-1.38 2.24,-1.38 2.24,-1.38c1.13,0 1.61,1.04 1.61,1.04l0.14,-0.87h1.83l-1.25,7.92c-0.14,0.91 -0.02,1.26 -0.02,1.26c0.12,0.35 0.43,0.35 0.43,0.35c0.45,0 0.86,-1.19 0.86,-1.19c0.41,-1.19 0.7,-3.08 0.7,-3.08c0.48,-3.15 0.21,-5.05 0.21,-5.05c-0.26,-1.91 -1.16,-2.76 -1.16,-2.76c-0.9,-0.86 -2.32,-0.86 -2.32,-0.86c-1.36,0 -2.48,0.83 -2.48,0.83c-1.12,0.83 -1.92,2.69 -1.92,2.69c-0.8,1.86 -1.28,4.96 -1.28,4.96c-0.53,3.36 -0.22,5.34 -0.22,5.34c0.31,1.98 1.2,2.83 1.2,2.83c0.89,0.85 2.11,0.85 2.11,0.85c0.82,0 1.51,-0.28 1.51,-0.28c0.7,-0.27 1.32,-0.78 1.32,-0.78l0.8,1.25c-0.75,0.67 -1.7,1.02 -1.7,1.02c-0.94,0.35 -2.07,0.35 -2.07,0.35c-1.85,0 -3.07,-1.09 -3.07,-1.09c-1.23,-1.09 -1.66,-3.4 -1.66,-3.4c-0.43,-2.3 0.1,-5.93 0.1,-5.93c0.76,-5.3 2.66,-7.72 2.66,-7.72c1.9,-2.43 4.8,-2.43 4.8,-2.43c3.02,0 4.24,2.43 4.24,2.43c1.21,2.42 0.51,7.58 0.51,7.58zM82.2941,27.26c0.05,-0.89 -0.23,-1.42 -0.23,-1.42c-0.27,-0.53 -0.78,-0.53 -0.78,-0.53c-0.74,0 -1.23,1.11 -1.23,1.11c-0.49,1.1 -0.76,2.73 -0.76,2.73c-0.29,1.73 -0.19,2.86 -0.19,2.86c0.1,1.13 0.91,1.13 0.91,1.13c0.6,0 1.06,-0.71 1.06,-0.71c0.45,-0.71 0.65,-1.6 0.65,-1.6zM97.4641,30.78c-0.48,1.88 -1.66,2.97 -1.66,2.97c-1.17,1.09 -2.92,1.09 -2.92,1.09c-2.33,0 -3.2,-1.84 -3.2,-1.84c-0.86,-1.83 -0.36,-5.7 -0.36,-5.7c0.51,-3.91 1.84,-5.74 1.84,-5.74c1.33,-1.84 3.61,-1.84 3.61,-1.84c1.71,0 2.61,1.06 2.61,1.06c0.9,1.05 1.04,2.76 1.04,2.76l-2.23,0.36c-0.07,-0.8 -0.42,-1.41 -0.42,-1.41c-0.35,-0.61 -1.19,-0.61 -1.19,-0.61c-1.06,0 -1.75,1.32 -1.75,1.32c-0.7,1.32 -1.11,4.1 -1.11,4.1c-0.38,2.76 -0.07,4.07 -0.07,4.07c0.31,1.31 1.49,1.31 1.49,1.31c0.7,0 1.3,-0.56 1.3,-0.56c0.6,-0.57 0.91,-1.65 0.91,-1.65zM100.754,34.6h-2.2799l2.0599,-14.71h2.28l-0.26,1.85c0.69,-1.06 1.65,-1.52 1.65,-1.52c0.96,-0.45 2.02,-0.45 2.02,-0.45l-0.31,2.37c-1.32,-0.16 -2.4,0.66 -2.4,0.66c-1.08,0.83 -1.47,2.63 -1.47,2.63zM111.024,33.98c-0.72,2.04 -1.36,3.28 -1.36,3.28c-0.63,1.25 -1.45,1.82 -1.45,1.82c-0.81,0.56 -2.09,0.56 -2.09,0.56c-0.52,0 -1.05,-0.08 -1.05,-0.08c-0.53,-0.09 -1.13,-0.3 -1.13,-0.3l0.34,-2.07c0.43,0.12 0.84,0.21 0.84,0.21c0.4,0.08 0.84,0.08 0.84,0.08c0.69,0 1.28,-0.61 1.28,-0.61c0.59,-0.61 0.92,-1.57 0.92,-1.57l-1.58,-15.34h2.38l0.64,9.02c0.05,0.72 0.09,1.44 0.09,1.44c0.03,0.72 0.06,1.44 0.06,1.44c0.24,-0.72 0.47,-1.44 0.47,-1.44c0.22,-0.72 0.46,-1.44 0.46,-1.44l2.93,-9.02h2.4zM117.434,30.74c0.05,0.96 0.59,1.46 0.59,1.46c0.54,0.5 1.23,0.5 1.23,0.5c0.55,0 1.02,-0.34 1.02,-0.34c0.47,-0.35 0.59,-1.17 0.59,-1.17c0.14,-0.79 -0.14,-1.44 -0.14,-1.44c-0.29,-0.65 -0.83,-1.23 -0.83,-1.23c-0.54,-0.59 -1.15,-1.18 -1.15,-1.18c-0.62,-0.59 -1.12,-1.26 -1.12,-1.26c-0.5,-0.67 -0.73,-1.52 -0.73,-1.52c-0.23,-0.86 0.01,-1.94 0.01,-1.94c0.22,-1.03 0.8,-1.66 0.8,-1.66c0.59,-0.64 1.4,-0.94 1.4,-0.94c0.8,-0.3 1.64,-0.3 1.64,-0.3c0.96,0 1.81,0.42 1.81,0.42c0.85,0.42 1.36,1.31 1.36,1.31c0.5,0.89 0.38,2.3 0.38,2.3h-2.06c0.05,-1.03 -0.41,-1.5 -0.41,-1.5c-0.46,-0.47 -1.08,-0.47 -1.08,-0.47c-0.5,0 -0.92,0.29 -0.92,0.29c-0.42,0.29 -0.57,1.06 -0.57,1.06c-0.12,0.62 0.18,1.19 0.18,1.19c0.3,0.56 0.82,1.11 0.82,1.11c0.51,0.55 1.11,1.15 1.11,1.15c0.6,0.6 1.11,1.3 1.11,1.3c0.5,0.7 0.75,1.54 0.75,1.54c0.26,0.84 0.06,1.92 0.06,1.92c-0.19,1.17 -0.84,1.95 -0.84,1.95c-0.64,0.78 -1.53,1.17 -1.53,1.17c-0.89,0.38 -1.85,0.38 -1.85,0.38c-0.98,0 -1.86,-0.43 -1.86,-0.43c-0.88,-0.43 -1.42,-1.32 -1.42,-1.32c-0.54,-0.89 -0.54,-2.26 -0.54,-2.26zM125.304,30.35l1.3,-8.28h-1.56l0.31,-2.11h1.58l0.63,-4.03h2.2l-0.6,4.03h2.72l-0.32,2.11h-2.73l-1.2,8.02c-0.19,1.32 -0.01,1.95 -0.01,1.95c0.18,0.64 0.85,0.64 0.85,0.64c0.57,0 1.22,-0.46 1.22,-0.46l0.75,1.97c-0.75,0.34 -1.55,0.53 -1.55,0.53c-0.81,0.19 -1.55,0.1 -1.55,0.1c-0.74,-0.1 -1.28,-0.57 -1.28,-0.57c-0.54,-0.47 -0.77,-1.41 -0.77,-1.41c-0.23,-0.95 0.01,-2.49 0.01,-2.49zM140.084,34.6h-2.2l0.12,-1.32c-0.53,0.72 -1.19,1.14 -1.19,1.14c-0.66,0.42 -1.38,0.42 -1.38,0.42c-1.15,0 -1.98,-0.77 -1.98,-0.77c-0.83,-0.77 -1.14,-2.51 -1.14,-2.51c-0.31,-1.74 0.09,-4.64 0.09,-4.64c0.51,-3.65 1.84,-5.41 1.84,-5.41c1.33,-1.77 3.08,-1.77 3.08,-1.77c1.61,0 2.33,1.47 2.33,1.47l0.17,-1.25h2.33zM134.584,29.97c-0.02,1.25 0.32,1.98 0.32,1.98c0.34,0.73 1.15,0.73 1.15,0.73c0.58,0 1.05,-0.42 1.05,-0.42c0.46,-0.42 0.8,-1.09 0.8,-1.09c0.34,-0.67 0.53,-1.42 0.53,-1.42l0.77,-5.35c0.02,-1.1 -0.42,-1.8 -0.42,-1.8c-0.45,-0.7 -1.24,-0.7 -1.24,-0.7c-0.74,0 -1.3,0.72 -1.3,0.72c-0.55,0.72 -0.91,1.92 -0.91,1.92c-0.36,1.2 -0.55,2.64 -0.55,2.64c-0.19,1.54 -0.2,2.79 -0.2,2.79zM144.814,34.6h-2.33l2.86,-20.16h2.33zM149.564,34.6h-2.32l2.85,-20.16h2.33zM156.334,34.84c-2.33,0 -3.19,-1.84 -3.19,-1.84c-0.86,-1.83 -0.36,-5.7 -0.36,-5.7c0.5,-3.91 1.84,-5.74 1.84,-5.74c1.33,-1.84 3.61,-1.84 3.61,-1.84c2.35,0 3.21,1.84 3.21,1.84c0.87,1.83 0.36,5.74 0.36,5.74c-0.5,3.87 -1.83,5.7 -1.83,5.7c-1.33,1.84 -3.64,1.84 -3.64,1.84zM158.314,31.37c0.71,-1.31 1.09,-4.07 1.09,-4.07c0.41,-2.78 0.08,-4.1 0.08,-4.1c-0.34,-1.32 -1.44,-1.32 -1.44,-1.32c-1.06,0 -1.76,1.32 -1.76,1.32c-0.69,1.32 -1.1,4.1 -1.1,4.1c-0.38,2.76 -0.07,4.07 -0.07,4.07c0.31,1.31 1.39,1.31 1.39,1.31c1.1,0 1.81,-1.31 1.81,-1.31zM166.484,18.38c-0.67,0 -1,-0.46 -1,-0.46c-0.34,-0.46 -0.24,-1.18 -0.24,-1.18c0.12,-0.69 0.52,-1.16 0.52,-1.16c0.41,-0.47 1.16,-0.47 1.16,-0.47c0.69,0 1.03,0.47 1.03,0.47c0.33,0.47 0.21,1.16 0.21,1.16c-0.09,0.72 -0.51,1.18 -0.51,1.18c-0.42,0.46 -1.17,0.46 -1.17,0.46zM165.334,34.6h-2.33l2.07,-14.64h2.33zM176.304,34.6h-2.21l0.12,-1.32c-0.53,0.72 -1.19,1.14 -1.19,1.14c-0.66,0.42 -1.38,0.42 -1.38,0.42c-0.79,0 -1.48,-0.38 -1.48,-0.38c-0.7,-0.39 -1.16,-1.3 -1.16,-1.3c-0.45,-0.91 -0.57,-2.44 -0.57,-2.44c-0.12,-1.52 0.19,-3.8 0.19,-3.8c0.53,-3.65 1.85,-5.41 1.85,-5.41c1.32,-1.77 3.07,-1.77 3.07,-1.77c1.61,0 2.33,1.47 2.33,1.47l0.96,-6.77h2.33zM170.784,29.97c-0.02,1.25 0.31,1.98 0.31,1.98c0.34,0.73 1.18,0.73 1.18,0.73c0.57,0 1.04,-0.42 1.04,-0.42c0.47,-0.42 0.81,-1.09 0.81,-1.09c0.33,-0.67 0.52,-1.44 0.52,-1.44l0.77,-5.31c0.03,-1.1 -0.41,-1.81 -0.41,-1.81c-0.43,-0.71 -1.24,-0.71 -1.24,-0.71c-0.75,0 -1.3,0.72 -1.3,0.72c-0.55,0.72 -0.91,1.92 -0.91,1.92c-0.36,1.2 -0.55,2.64 -0.55,2.64c-0.2,1.54 -0.22,2.79 -0.22,2.79zM178.844,37.77h14.4l-0.24,1.63h-14.4zM196.584,18.38c-0.67,0 -1.01,-0.46 -1.01,-0.46c-0.33,-0.46 -0.24,-1.18 -0.24,-1.18c0.12,-0.69 0.53,-1.16 0.53,-1.16c0.41,-0.47 1.15,-0.47 1.15,-0.47c0.7,0 1.03,0.47 1.03,0.47c0.34,0.47 0.22,1.16 0.22,1.16c-0.1,0.72 -0.52,1.18 -0.52,1.18c-0.42,0.46 -1.16,0.46 -1.16,0.46zM195.434,34.6h-2.33l2.06,-14.64h2.33zM200.164,34.6h-2.28l2.06,-14.71h2.28l-0.26,1.85c0.69,-1.06 1.65,-1.52 1.65,-1.52c0.96,-0.45 2.02,-0.45 2.02,-0.45l-0.31,2.37c-1.32,-0.16 -2.4,0.66 -2.4,0.66c-1.08,0.83 -1.47,2.63 -1.47,2.63zM209.234,34.84c-2.33,0 -3.19,-1.84 -3.19,-1.84c-0.87,-1.83 -0.36,-5.7 -0.36,-5.7c0.5,-3.91 1.83,-5.74 1.83,-5.74c1.33,-1.84 3.61,-1.84 3.61,-1.84c2.36,0 3.22,1.84 3.22,1.84c0.86,1.83 0.36,5.74 0.36,5.74c-0.5,3.87 -1.84,5.7 -1.84,5.7c-1.33,1.84 -3.63,1.84 -3.63,1.84zM211.214,31.37c0.71,-1.31 1.09,-4.07 1.09,-4.07c0.41,-2.78 0.07,-4.1 0.07,-4.1c-0.33,-1.32 -1.44,-1.32 -1.44,-1.32c-1.05,0 -1.75,1.32 -1.75,1.32c-0.7,1.32 -1.1,4.1 -1.1,4.1c-0.39,2.76 -0.08,4.07 -0.08,4.07c0.32,1.31 1.4,1.31 1.4,1.31c1.1,0 1.81,-1.31 1.81,-1.31zM218.254,34.6h-2.33l2.09,-14.64h2.19l-0.12,1.42c0.6,-0.89 1.33,-1.28 1.33,-1.28c0.73,-0.38 1.43,-0.38 1.43,-0.38c0.86,0 1.54,0.42 1.54,0.42c0.69,0.42 1.01,1.36 1.01,1.36c0.33,0.93 0.09,2.54 0.09,2.54l-1.49,10.56h-2.35l1.46,-10.18c0.36,-2.54 -1.22,-2.54 -1.22,-2.54c-0.77,0 -1.35,0.72 -1.35,0.72c-0.57,0.72 -0.84,1.85 -0.84,1.85z"></path>
        </g>
        <g id="路径 1 (轮廓)" filter="url(#filter_3)">
            <path id="路径 1 (轮廓)" fill-rule="evenodd" fill="url(#linear_2)" opacity="1"
                  d="M30,45l-4.4,-15.6l-15.6,-4.4l15.6,-4.4l4.4,-15.6l4.4,15.6l15.6,4.4l-15.6,4.4zM26.56,29.15l2.94,10.28v-13.22zM30.5,39.43l2.94,-10.28l-2.94,-2.94zM34.15,28.44l10.28,-2.94h-13.22zM34.15,21.56l-2.94,2.94h13.22zM33.44,20.85l-2.94,-10.28v13.22zM26.56,20.85l2.94,2.94v-13.22zM25.85,21.56l-10.28,2.94h13.22zM15.57,25.5l10.28,2.94l2.94,-2.94z"></path>
        </g>
    </g>
    <defs>
        <linearGradient id="linear_0" x1="22.121%" y1="22.883%" x2="76.80799999999999%" y2="75.69%"
                        gradientUnits="objectBoundingBox">
            <stop offset="0" stop-color="#F2F26D" stop-opacity="1"/>
            <stop offset="1" stop-color="#6DF2F2" stop-opacity="1"/>
        </linearGradient>
        <linearGradient id="linear_1" x1="22.121%" y1="22.883%" x2="76.80799999999999%" y2="75.69%"
                        gradientUnits="objectBoundingBox">
            <stop offset="0" stop-color="#F2F26D" stop-opacity="1"/>
            <stop offset="1" stop-color="#6DF2F2" stop-opacity="1"/>
        </linearGradient>
        <filter id="filter_2" x="70.494140625" y="10.439998626708984" width="159.07146543394663" height="33.2"
                filterUnits="userSpaceOnUse" color-interpolation-filters="sRGB">
            <feFlood flood-opacity="0" result="feFloodId"/>
            <feColorMatrix in="SourceAlpha" type="matrix" values="0 0 0 0 0 0 0 0 0 0 0 0 0 0 0 0 0 0 127 0"
                           result="hardAlpha"/>

            <feOffset dx="0" dy="0"/>
            <feComposite in2="hardAlpha" operator="out"/>
            <feGaussianBlur stdDeviation="2"/>
            <feColorMatrix type="matrix" values="0 0 0 0 0 0 0 0 0 0 0 0 0 0 0 0 0 0 0.5 0"/>
            <feBlend mode="normal" in2="filter_feFlood" result="filter_feFlood_1"/>
            <feBlend mode="normal" in="SourceGraphic" in2="filter_2" result="shape"/>
        </filter>
        <linearGradient id="linear_2" x1="22.121%" y1="22.883%" x2="76.80799999999999%" y2="75.69%"
                        gradientUnits="objectBoundingBox">
            <stop offset="0" stop-color="#F2F26D" stop-opacity="1"/>
            <stop offset="1" stop-color="#6DF2F2" stop-opacity="1"/>
        </linearGradient>
        <filter id="filter_3" x="6" y="1" width="48" height="48" filterUnits="userSpaceOnUse"
                color-interpolation-filters="sRGB">
            <feFlood flood-opacity="0" result="feFloodId"/>
            <feColorMatrix in="SourceAlpha" type="matrix" values="0 0 0 0 0 0 0 0 0 0 0 0 0 0 0 0 0 0 127 0"
                           result="hardAlpha"/>

            <feOffset dx="0" dy="0"/>
            <feComposite in2="hardAlpha" operator="out"/>
            <feGaussianBlur stdDeviation="2"/>
            <feColorMatrix type="matrix" values="0 0 0 0 0 0 0 0 0 0 0 0 0 0 0 0 0 0 0.5 0"/>
            <feBlend mode="normal" in2="filter_feFlood" result="filter_feFlood_1"/>
            <feBlend mode="normal" in="SourceGraphic" in2="filter_3" result="shape"/>
        </filter>
    </defs>
</svg>