<svg xmlns:xlink="http://www.w3.org/1999/xlink" xmlns="http://www.w3.org/2000/svg" width="30" height="20"
     viewBox="0 0 30 20" fill="none">
    <g opacity="1" transform="translate(0 0)  rotate(0)">
        <g opacity="1" transform="translate(0 0)  rotate(0)">
            <path id="矩形 1" fill-rule="evenodd" style="fill:#22331F" opacity="1" d="M3 7L7 7L7 3L3 3L3 7Z"></path>
        </g>
        <g opacity="1" transform="translate(10 0)  rotate(0)">
            <g opacity="1" transform="translate(2 2)  rotate(0)">
                <path id="矩形 2" fill-rule="evenodd" style="fill:#22331F" opacity="1" d="M2 2L6 2L6 0L2 0L2 2Z"></path>
                <path id="矩形 2" fill-rule="evenodd" style="fill:#22331F" opacity="1" d="M0 4L2 4L2 0L0 0L0 4Z"></path>
                <path id="矩形 2" fill-rule="evenodd" style="fill:#22331F" opacity="1" d="M2 6L4 6L4 4L2 4L2 6Z"></path>
            </g>
        </g>
        <g opacity="1" transform="translate(0 10)  rotate(0)">
            <g opacity="1" transform="translate(1 2)  rotate(0)">
                <path id="矩形 3" fill-rule="evenodd" style="fill:#22331F" opacity="1" d="M0 4L2 4L2 2L0 2L0 4Z"></path>
                <path id="矩形 3" fill-rule="evenodd" style="fill:#22331F" opacity="1" d="M6 4L8 4L8 2L6 2L6 4Z"></path>
                <path id="矩形 3" fill-rule="evenodd" style="fill:#22331F" opacity="1" d="M2 2L6 2L6 0L2 0L2 2Z"></path>
                <path id="矩形 3" fill-rule="evenodd" style="fill:#22331F" opacity="1" d="M2 6L6 6L6 4L2 4L2 6Z"></path>
            </g>
        </g>
        <g opacity="1" transform="translate(10 10)  rotate(0)">
            <path id="矩形 4" fill-rule="evenodd" style="fill:#22331F" opacity="1" d="M4 8L6 8L6 2L4 2L4 8Z"></path>
        </g>
        <g opacity="1" transform="translate(20 0)  rotate(0)">
            <mask id="bg-mask-0" fill="white">
                <use transform="translate(0 0)  rotate(0)" xlink:href="#path_0"></use>
            </mask>
            <g mask="url(#bg-mask-0)">
                <g opacity="1" transform="translate(0 0)  rotate(0)">
                    <path id="矩形 5 (轮廓)" fill-rule="evenodd" style="fill:#22331F" opacity="1"
                          d="M7,9h-4c-1.1,0 -2,-0.9 -2,-2v-4c0,-1.1 0.9,-2 2,-2h4c1.1,0 2,0.9 2,2v4c0,1.1 -0.9,2 -2,2zM7,8c0.27,0 0.51,-0.1 0.71,-0.29c0.19,-0.2 0.29,-0.44 0.29,-0.71v-4c0,-0.27 -0.1,-0.51 -0.29,-0.71c-0.2,-0.19 -0.44,-0.29 -0.71,-0.29h-4c-0.27,0 -0.51,0.1 -0.71,0.29c-0.19,0.2 -0.29,0.44 -0.29,0.71v4c0,0.27 0.1,0.51 0.29,0.71c0.2,0.19 0.44,0.29 0.71,0.29z"></path>
                </g>
                <g opacity="1" transform="translate(0 10)  rotate(0)">
                    <g opacity="1" transform="translate(1 1)  rotate(0)">
                        <path id="矩形 5 (轮廓)" fill-rule="evenodd" style="fill:#22331F" opacity="1"
                              d="M6,8h-4c-1.1,0 -2,-0.9 -2,-2v-4c0,-1.1 0.9,-2 2,-2h4c1.1,0 2,0.9 2,2v4c0,1.1 -0.9,2 -2,2zM6,7c0.27,0 0.51,-0.1 0.71,-0.29c0.19,-0.2 0.29,-0.44 0.29,-0.71v-4c0,-0.27 -0.1,-0.51 -0.29,-0.71c-0.2,-0.19 -0.44,-0.29 -0.71,-0.29h-4c-0.27,0 -0.51,0.1 -0.71,0.29c-0.19,0.2 -0.29,0.44 -0.29,0.71v4c0,0.27 0.1,0.51 0.29,0.71c0.2,0.19 0.44,0.29 0.71,0.29z"></path>
                        <path id="矩形 5" fill-rule="evenodd" style="fill:#22331F" opacity="1"
                              d="M2 4L4 4L4 2L2 2L2 4Z"></path>
                        <path id="矩形 5" fill-rule="evenodd" style="fill:#22331F" opacity="1"
                              d="M4 6L6 6L6 4L4 4L4 6Z"></path>
                    </g>
                </g>
            </g>
        </g>
    </g>
    <defs>
        <rect id="path_0" x="0" y="0" width="10" height="20"/>
    </defs>
</svg>