<svg xmlns:xlink="http://www.w3.org/1999/xlink" xmlns="http://www.w3.org/2000/svg" width="100" height="250"
     viewBox="0 0 100 250" fill="none">
    <g opacity="1" transform="translate(0 0)  rotate(0)">
        <mask id="bg-mask-0" fill="white">
            <use transform="translate(0 0)  rotate(0)" xlink:href="#path_0"></use>
        </mask>
        <g mask="url(#bg-mask-0)">
            <g opacity="1" transform="translate(0 0)  rotate(0)">
                <mask id="bg-mask-1" fill="white">
                    <use transform="translate(0 0)  rotate(0)" xlink:href="#path_1"></use>
                </mask>
                <g mask="url(#bg-mask-1)">
                    <g opacity="1" transform="translate(0 0)  rotate(0)">
                        <path id="直线 1 (轮廓)" fill-rule="evenodd" style="fill:#22331F" opacity="1"
                              d="M12 12.9997C12 13.0697 12.01 13.1297 12.02 13.1997C12.03 13.2597 12.0499 13.3197 12.0799 13.3797C12.0999 13.4397 12.1299 13.4997 12.1699 13.5597C12.2099 13.6098 12.2499 13.6598 12.2899 13.7098C12.3399 13.7498 12.3899 13.7898 12.4399 13.8298C12.4999 13.8698 12.5598 13.8998 12.6198 13.9198C12.6798 13.9498 12.7398 13.9698 12.7998 13.9799C12.8698 13.9899 12.9298 13.9999 12.9998 13.9999C13.0698 13.9999 13.1298 13.9899 13.1998 13.9799C13.2598 13.9699 13.3198 13.9499 13.3798 13.9199C13.4398 13.9 13.4999 13.87 13.5599 13.83C13.6099 13.79 13.6599 13.75 13.7099 13.71C13.7499 13.66 13.7899 13.61 13.8299 13.56C13.8699 13.5 13.8999 13.44 13.9199 13.38C13.9499 13.32 13.97 13.26 13.98 13.2C13.99 13.1301 14 13.0701 14 13.0001L14.001 7.00005C14.001 6.93005 13.991 6.87005 13.981 6.81005C13.971 6.74005 13.9511 6.68004 13.9211 6.62004C13.9011 6.56004 13.8711 6.50003 13.8311 6.44002C13.7911 6.39002 13.7511 6.34001 13.7111 6.29C13.6611 6.25 13.6111 6.20999 13.5611 6.16998C13.5011 6.12997 13.4412 6.09996 13.3812 6.07995C13.3212 6.04994 13.2612 6.02993 13.2012 6.01992C13.1312 6.00991 13.0712 5.9999 13.0012 5.99989C12.9312 5.99987 12.8712 6.00986 12.8012 6.01985C12.7412 6.02984 12.6812 6.04983 12.6212 6.07982C12.5612 6.09981 12.5011 6.1298 12.4411 6.16979C12.3911 6.20978 12.3411 6.24978 12.2911 6.28977C12.2511 6.33976 12.2111 6.38975 12.1711 6.43975C12.1311 6.49974 12.1011 6.55974 12.0811 6.61973C12.0511 6.67973 12.031 6.73972 12.021 6.80972C12.011 6.86972 12.001 6.92972 12.001 6.99972L12 12.9997Z"></path>
                        <path id="直线 1 (轮廓)" fill-rule="evenodd" style="fill:#22331F" opacity="1"
                              d="M13.7071 12.2928C13.6576 12.2433 13.6081 12.2079 13.5516 12.1655C13.5021 12.1302 13.4455 12.1019 13.3819 12.0807C13.3253 12.0524 13.2616 12.0312 13.1909 12.017C13.1273 12.0099 13.0637 12.0029 13 11.9958C12.9364 12.0029 12.8727 12.0099 12.8091 12.017C12.7384 12.0311 12.6747 12.0524 12.6182 12.0806C12.5545 12.1019 12.498 12.1301 12.4485 12.1655C12.3919 12.2079 12.3424 12.2433 12.2929 12.2928C12.2434 12.3423 12.2081 12.3918 12.1656 12.4483C12.1303 12.4978 12.102 12.5544 12.0808 12.618C12.0525 12.6746 12.0313 12.7382 12.0171 12.8089C12.0101 12.8726 12.003 12.9362 11.9959 12.9999C12.003 13.0635 12.01 13.1271 12.0171 13.1908C12.0313 13.2615 12.0525 13.3251 12.0808 13.3817C12.102 13.4453 12.1302 13.5019 12.1656 13.5514C12.208 13.608 12.2434 13.6575 12.2929 13.707L15.291 16.7052C15.3405 16.7547 15.3899 16.79 15.4465 16.8325C15.496 16.8678 15.5526 16.8961 15.6233 16.9244C15.6799 16.9527 15.7364 16.9668 15.8071 16.9809C15.8708 16.988 15.9344 16.9951 15.9981 17.0022C16.0688 17.0022 16.1324 16.9951 16.189 16.981C16.2597 16.9668 16.3233 16.9456 16.387 16.9244C16.4435 16.8961 16.5001 16.8678 16.5496 16.8325C16.6132 16.7971 16.6557 16.7547 16.7052 16.7052C16.7547 16.6557 16.7971 16.6133 16.8325 16.5496C16.8678 16.5001 16.8961 16.4436 16.9244 16.387C16.9456 16.3234 16.9668 16.2597 16.9809 16.189C16.9951 16.1324 17.0022 16.0688 17.0022 15.9981C16.9951 15.9345 16.988 15.8708 16.981 15.8072C16.9668 15.7365 16.9527 15.6799 16.9244 15.6233C16.8961 15.5526 16.8678 15.496 16.8325 15.4465C16.79 15.39 16.7547 15.3405 16.7052 15.291L13.7071 12.2928Z"></path>
                        <path id="圆形 1 (轮廓)" fill-rule="evenodd" style="fill:#22331F" opacity="1"
                              d="M3,13c0,-5.52 4.48,-10 10,-10c5.52,0 10,4.48 10,10c0,5.52 -4.48,10 -10,10c-5.52,0 -10,-4.48 -10,-10zM5,13c0,4.42 3.58,8 8,8c4.42,0 8,-3.58 8,-8c0,-4.42 -3.58,-8 -8,-8c-4.42,0 -8,3.58 -8,8z"></path>
                    </g>
                    <g opacity="1" transform="translate(0 25)  rotate(0)">
                        <path id="直线 1 (轮廓)" fill-rule="evenodd" style="fill:#FFFFFF" opacity="1"
                              d="M12 12.9997C12 13.0697 12.01 13.1297 12.02 13.1997C12.03 13.2597 12.0499 13.3197 12.0799 13.3797C12.0999 13.4397 12.1299 13.4997 12.1699 13.5597C12.2099 13.6098 12.2499 13.6598 12.2899 13.7098C12.3399 13.7498 12.3899 13.7898 12.4399 13.8298C12.4999 13.8698 12.5598 13.8998 12.6198 13.9198C12.6798 13.9498 12.7398 13.9698 12.7998 13.9799C12.8698 13.9899 12.9298 13.9999 12.9998 13.9999C13.0698 13.9999 13.1298 13.9899 13.1998 13.9799C13.2598 13.9699 13.3198 13.9499 13.3798 13.9199C13.4398 13.9 13.4999 13.87 13.5599 13.83C13.6099 13.79 13.6599 13.75 13.7099 13.71C13.7499 13.66 13.7899 13.61 13.8299 13.56C13.8699 13.5 13.8999 13.44 13.9199 13.38C13.9499 13.32 13.97 13.26 13.98 13.2C13.99 13.13 14 13.0701 14 13.0001L14.001 7.00005C14.001 6.93005 13.991 6.87005 13.981 6.81005C13.971 6.74005 13.9511 6.68004 13.9211 6.62004C13.9011 6.56003 13.8711 6.50003 13.8311 6.44002C13.7911 6.39002 13.7511 6.34001 13.7111 6.29C13.6611 6.24999 13.6111 6.20999 13.5611 6.16998C13.5011 6.12997 13.4412 6.09996 13.3812 6.07995C13.3212 6.04994 13.2612 6.02993 13.2012 6.01992C13.1312 6.00991 13.0712 5.9999 13.0012 5.99988C12.9312 5.99987 12.8712 6.00986 12.8012 6.01985C12.7412 6.02984 12.6812 6.04983 12.6212 6.07982C12.5612 6.09981 12.5011 6.1298 12.4411 6.16979C12.3911 6.20978 12.3411 6.24977 12.2911 6.28977C12.2511 6.33976 12.2111 6.38975 12.1711 6.43975C12.1311 6.49974 12.1011 6.55973 12.0811 6.61973C12.0511 6.67973 12.031 6.73972 12.021 6.80972C12.011 6.86972 12.001 6.92972 12.001 6.99972L12 12.9997Z"></path>
                        <path id="直线 1 (轮廓)" fill-rule="evenodd" style="fill:#FFFFFF" opacity="1"
                              d="M13.7071 12.2928C13.6576 12.2433 13.6081 12.2079 13.5516 12.1655C13.5021 12.1302 13.4455 12.1019 13.3819 12.0807C13.3253 12.0524 13.2616 12.0312 13.1909 12.017C13.1273 12.0099 13.0637 12.0029 13 11.9958C12.9364 12.0029 12.8727 12.0099 12.8091 12.017C12.7384 12.0311 12.6747 12.0524 12.6182 12.0806C12.5545 12.1018 12.498 12.1301 12.4485 12.1655C12.3919 12.2079 12.3424 12.2433 12.2929 12.2928C12.2434 12.3423 12.2081 12.3918 12.1656 12.4483C12.1303 12.4978 12.102 12.5544 12.0808 12.618C12.0525 12.6746 12.0313 12.7382 12.0171 12.8089C12.0101 12.8726 12.003 12.9362 11.9959 12.9999C12.003 13.0635 12.01 13.1271 12.0171 13.1908C12.0313 13.2615 12.0525 13.3251 12.0808 13.3817C12.102 13.4453 12.1302 13.5019 12.1656 13.5514C12.208 13.608 12.2434 13.6575 12.2929 13.707L15.291 16.7052C15.3405 16.7547 15.3899 16.79 15.4465 16.8324C15.496 16.8678 15.5526 16.8961 15.6233 16.9244C15.6799 16.9527 15.7364 16.9668 15.8071 16.9809C15.8708 16.988 15.9344 16.9951 15.9981 17.0022C16.0688 17.0022 16.1324 16.9951 16.189 16.981C16.2597 16.9668 16.3233 16.9456 16.387 16.9244C16.4435 16.8961 16.5001 16.8678 16.5496 16.8325C16.6132 16.7971 16.6557 16.7547 16.7052 16.7052C16.7547 16.6557 16.7971 16.6133 16.8325 16.5496C16.8678 16.5001 16.8961 16.4436 16.9244 16.387C16.9456 16.3234 16.9668 16.2597 16.9809 16.189C16.9951 16.1324 17.0022 16.0688 17.0022 15.9981C16.9951 15.9345 16.988 15.8708 16.981 15.8072C16.9668 15.7365 16.9527 15.6799 16.9244 15.6233C16.8961 15.5526 16.8678 15.496 16.8325 15.4465C16.79 15.39 16.7547 15.3405 16.7052 15.291L13.7071 12.2928Z"></path>
                        <path id="圆形 1 (轮廓)" fill-rule="evenodd" style="fill:#FFFFFF" opacity="1"
                              d="M3,13c0,-5.52 4.48,-10 10,-10c5.52,0 10,4.48 10,10c0,5.52 -4.48,10 -10,10c-5.52,0 -10,-4.48 -10,-10zM5,13c0,4.42 3.58,8 8,8c4.42,0 8,-3.58 8,-8c0,-4.42 -3.58,-8 -8,-8c-4.42,0 -8,3.58 -8,8z"></path>
                    </g>
                </g>
            </g>
            <g opacity="1" transform="translate(25 0)  rotate(0)">
                <mask id="bg-mask-2" fill="white">
                    <use transform="translate(0 0)  rotate(0)" xlink:href="#path_2"></use>
                </mask>
                <g mask="url(#bg-mask-2)">
                    <g opacity="1" transform="translate(0 0)  rotate(0)">
                        <path id="直线 2 (轮廓)" fill-rule="evenodd" style="fill:#22331F" opacity="1"
                              d="M4.99993 6.001C4.92993 6.001 4.86993 6.01101 4.79993 6.02101C4.73994 6.03102 4.67994 6.05102 4.61994 6.08103C4.55994 6.10103 4.49994 6.13103 4.43994 6.17104C4.38995 6.21104 4.33995 6.25104 4.28995 6.29105C4.24996 6.34105 4.20996 6.39105 4.16996 6.44105C4.12997 6.50106 4.09997 6.56106 4.07997 6.62106C4.04998 6.68106 4.02998 6.74106 4.01999 6.80106C4.00999 6.87107 4 6.93107 4 7.00107C4 7.07107 4.01001 7.13107 4.02001 7.20107C4.03002 7.26106 4.05002 7.32106 4.08003 7.38106C4.10003 7.44106 4.13003 7.50106 4.17004 7.56105C4.21004 7.61105 4.25004 7.66105 4.29005 7.71105C4.34005 7.75104 4.39005 7.79104 4.44006 7.83104C4.50006 7.87103 4.56006 7.90103 4.62006 7.92102C4.68006 7.95102 4.74006 7.97102 4.80007 7.98101C4.87007 7.99101 4.93007 8.001 5.00007 8.001L20.0001 8C20.0701 8 20.1301 7.98999 20.2001 7.97999C20.2601 7.96998 20.3201 7.94998 20.3801 7.91997C20.4401 7.89997 20.5001 7.86997 20.5601 7.82996C20.6101 7.78996 20.66 7.74996 20.71 7.70995C20.75 7.65995 20.79 7.60995 20.83 7.55994C20.87 7.49994 20.9 7.43994 20.92 7.37994C20.95 7.31994 20.97 7.25994 20.98 7.19993C20.99 7.12993 21 7.06993 21 6.99993C21 6.92993 20.99 6.86993 20.98 6.79993C20.97 6.73994 20.95 6.67994 20.92 6.61994C20.9 6.55994 20.87 6.49994 20.83 6.43994C20.79 6.38995 20.75 6.33995 20.71 6.28995C20.66 6.24996 20.6099 6.20996 20.5599 6.16996C20.4999 6.12997 20.4399 6.09997 20.3799 6.07997C20.3199 6.04998 20.2599 6.02998 20.1999 6.01999C20.1299 6.00999 20.0699 6 19.9999 6L4.99993 6.001Z"></path>
                        <path id="直线 2 (轮廓)" fill-rule="evenodd" style="fill:#22331F" opacity="1"
                              d="M4.99993 12.001C4.92993 12.001 4.86993 12.011 4.79993 12.021C4.73994 12.031 4.67994 12.051 4.61994 12.081C4.55994 12.101 4.49994 12.131 4.43994 12.171C4.38995 12.211 4.33995 12.251 4.28995 12.291C4.24996 12.341 4.20996 12.3911 4.16996 12.4411C4.12997 12.5011 4.09997 12.5611 4.07997 12.6211C4.04998 12.6811 4.02998 12.7411 4.01999 12.8011C4.00999 12.8711 4 12.9311 4 13.0011C4 13.0711 4.01001 13.1311 4.02001 13.2011C4.03002 13.2611 4.05002 13.3211 4.08003 13.3811C4.10003 13.4411 4.13003 13.5011 4.17004 13.5611C4.21004 13.6111 4.25004 13.661 4.29005 13.711C4.34005 13.751 4.39005 13.791 4.44006 13.831C4.50006 13.871 4.56006 13.901 4.62006 13.921C4.68006 13.951 4.74006 13.971 4.80007 13.981C4.87007 13.991 4.93007 14.001 5.00007 14.001L20.0001 14C20.0701 14 20.1301 13.99 20.2001 13.98C20.2601 13.97 20.3201 13.95 20.3801 13.92C20.4401 13.9 20.5001 13.87 20.5601 13.83C20.6101 13.79 20.66 13.75 20.71 13.71C20.75 13.66 20.79 13.6099 20.83 13.5599C20.87 13.4999 20.9 13.4399 20.92 13.3799C20.95 13.3199 20.97 13.2599 20.98 13.1999C20.99 13.1299 21 13.0699 21 12.9999C21 12.9299 20.99 12.8699 20.98 12.7999C20.97 12.7399 20.95 12.6799 20.92 12.6199C20.9 12.5599 20.87 12.4999 20.83 12.4399C20.79 12.3899 20.75 12.34 20.71 12.29C20.66 12.25 20.6099 12.21 20.5599 12.17C20.4999 12.13 20.4399 12.1 20.3799 12.08C20.3199 12.05 20.2599 12.03 20.1999 12.02C20.1299 12.01 20.0699 12 19.9999 12L4.99993 12.001Z"></path>
                        <path id="直线 2 (轮廓)" fill-rule="evenodd" style="fill:#22331F" opacity="1"
                              d="M4.99993 18.001C4.92993 18.001 4.86993 18.011 4.79993 18.021C4.73994 18.031 4.67994 18.051 4.61994 18.081C4.55994 18.101 4.49994 18.131 4.43994 18.171C4.38995 18.211 4.33995 18.251 4.28995 18.291C4.24996 18.341 4.20996 18.3911 4.16996 18.4411C4.12997 18.5011 4.09997 18.5611 4.07997 18.6211C4.04998 18.6811 4.02998 18.7411 4.01999 18.8011C4.00999 18.8711 4 18.9311 4 19.0011C4 19.0711 4.01001 19.1311 4.02001 19.2011C4.03002 19.2611 4.05002 19.3211 4.08003 19.3811C4.10003 19.4411 4.13003 19.5011 4.17004 19.5611C4.21004 19.6111 4.25004 19.661 4.29005 19.711C4.34005 19.751 4.39005 19.791 4.44006 19.831C4.50006 19.871 4.56006 19.901 4.62006 19.921C4.68006 19.951 4.74006 19.971 4.80007 19.981C4.87007 19.991 4.93007 20.001 5.00007 20.001L20.0001 20C20.0701 20 20.1301 19.99 20.2001 19.98C20.2601 19.97 20.3201 19.95 20.3801 19.92C20.4401 19.9 20.5001 19.87 20.5601 19.83C20.6101 19.79 20.66 19.75 20.71 19.71C20.75 19.66 20.79 19.6099 20.83 19.5599C20.87 19.4999 20.9 19.4399 20.92 19.3799C20.95 19.3199 20.97 19.2599 20.98 19.1999C20.99 19.1299 21 19.0699 21 18.9999C21 18.9299 20.99 18.8699 20.98 18.7999C20.97 18.7399 20.95 18.6799 20.92 18.6199C20.9 18.5599 20.87 18.4999 20.83 18.4399C20.79 18.3899 20.75 18.34 20.71 18.29C20.66 18.25 20.6099 18.21 20.5599 18.17C20.4999 18.13 20.4399 18.1 20.3799 18.08C20.3199 18.05 20.2599 18.03 20.1999 18.02C20.1299 18.01 20.0699 18 19.9999 18L4.99993 18.001Z"></path>
                        <path id="矩形 3" fill-rule="evenodd" style="fill:#22331F" opacity="1"
                              d="M12 9L14 9C14.55 9 15 8.55 15 8L15 6C15 5.45 14.55 5 14 5L12 5C11.45 5 11 5.45 11 6L11 8C11 8.55 11.45 9 12 9Z"></path>
                        <path id="矩形 3" fill-rule="evenodd" style="fill:#22331F" opacity="1"
                              d="M7 15L9 15C9.55 15 10 14.55 10 14L10 12C10 11.45 9.55 11 9 11L7 11C6.45 11 6 11.45 6 12L6 14C6 14.55 6.45 15 7 15Z"></path>
                        <path id="矩形 3" fill-rule="evenodd" style="fill:#22331F" opacity="1"
                              d="M16 21L18 21C18.55 21 19 20.55 19 20L19 18C19 17.45 18.55 17 18 17L16 17C15.45 17 15 17.45 15 18L15 20C15 20.55 15.45 21 16 21Z"></path>
                    </g>
                    <g opacity="1" transform="translate(0 25)  rotate(0)">
                        <path id="直线 2 (轮廓)" fill-rule="evenodd" style="fill:#FFFFFF" opacity="1"
                              d="M4.99993 6.001C4.92993 6.001 4.86993 6.01101 4.79993 6.02101C4.73994 6.03102 4.67994 6.05102 4.61994 6.08103C4.55994 6.10103 4.49994 6.13103 4.43994 6.17104C4.38995 6.21104 4.33995 6.25104 4.28995 6.29105C4.24996 6.34105 4.20996 6.39105 4.16996 6.44105C4.12997 6.50106 4.09997 6.56106 4.07997 6.62106C4.04998 6.68106 4.02998 6.74106 4.01999 6.80106C4.00999 6.87107 4 6.93107 4 7.00107C4 7.07107 4.01001 7.13107 4.02001 7.20107C4.03002 7.26106 4.05002 7.32106 4.08003 7.38106C4.10003 7.44106 4.13003 7.50106 4.17004 7.56105C4.21004 7.61105 4.25004 7.66105 4.29005 7.71105C4.34005 7.75104 4.39005 7.79104 4.44006 7.83104C4.50006 7.87103 4.56006 7.90103 4.62006 7.92102C4.68006 7.95102 4.74006 7.97102 4.80007 7.98101C4.87007 7.99101 4.93007 8.001 5.00007 8.001L20.0001 8C20.0701 8 20.1301 7.98999 20.2001 7.97999C20.2601 7.96998 20.3201 7.94998 20.3801 7.91997C20.4401 7.89997 20.5001 7.86997 20.5601 7.82996C20.6101 7.78996 20.66 7.74996 20.71 7.70995C20.75 7.65995 20.79 7.60995 20.83 7.55994C20.87 7.49994 20.9 7.43994 20.92 7.37994C20.95 7.31994 20.97 7.25994 20.98 7.19993C20.99 7.12993 21 7.06993 21 6.99993C21 6.92993 20.99 6.86993 20.98 6.79993C20.97 6.73994 20.95 6.67994 20.92 6.61994C20.9 6.55994 20.87 6.49994 20.83 6.43994C20.79 6.38995 20.75 6.33995 20.71 6.28995C20.66 6.24996 20.6099 6.20996 20.5599 6.16996C20.4999 6.12997 20.4399 6.09997 20.3799 6.07997C20.3199 6.04998 20.2599 6.02998 20.1999 6.01999C20.1299 6.00999 20.0699 6 19.9999 6L4.99993 6.001Z"></path>
                        <path id="直线 2 (轮廓)" fill-rule="evenodd" style="fill:#FFFFFF" opacity="1"
                              d="M4.99993 12.001C4.92993 12.001 4.86993 12.011 4.79993 12.021C4.73994 12.031 4.67994 12.051 4.61994 12.081C4.55994 12.101 4.49994 12.131 4.43994 12.171C4.38995 12.211 4.33995 12.251 4.28995 12.291C4.24996 12.3411 4.20996 12.3911 4.16996 12.4411C4.12997 12.5011 4.09997 12.5611 4.07997 12.6211C4.04998 12.6811 4.02998 12.7411 4.01999 12.8011C4.00999 12.8711 4 12.9311 4 13.0011C4 13.0711 4.01001 13.1311 4.02001 13.2011C4.03002 13.2611 4.05002 13.3211 4.08003 13.3811C4.10003 13.4411 4.13003 13.5011 4.17004 13.5611C4.21004 13.6111 4.25004 13.6611 4.29005 13.711C4.34005 13.751 4.39005 13.791 4.44006 13.831C4.50006 13.871 4.56006 13.901 4.62006 13.921C4.68006 13.951 4.74006 13.971 4.80007 13.981C4.87007 13.991 4.93007 14.001 5.00007 14.001L20.0001 14C20.0701 14 20.1301 13.99 20.2001 13.98C20.2601 13.97 20.3201 13.95 20.3801 13.92C20.4401 13.9 20.5001 13.87 20.5601 13.83C20.6101 13.79 20.66 13.75 20.71 13.71C20.75 13.66 20.79 13.6099 20.83 13.5599C20.87 13.4999 20.9 13.4399 20.92 13.3799C20.95 13.3199 20.97 13.2599 20.98 13.1999C20.99 13.1299 21 13.0699 21 12.9999C21 12.9299 20.99 12.8699 20.98 12.7999C20.97 12.7399 20.95 12.6799 20.92 12.6199C20.9 12.5599 20.87 12.4999 20.83 12.4399C20.79 12.3899 20.75 12.34 20.71 12.29C20.66 12.25 20.6099 12.21 20.5599 12.17C20.4999 12.13 20.4399 12.1 20.3799 12.08C20.3199 12.05 20.2599 12.03 20.1999 12.02C20.1299 12.01 20.0699 12 19.9999 12L4.99993 12.001Z"></path>
                        <path id="直线 2 (轮廓)" fill-rule="evenodd" style="fill:#FFFFFF" opacity="1"
                              d="M4.99993 18.001C4.92993 18.001 4.86993 18.011 4.79993 18.021C4.73994 18.031 4.67994 18.051 4.61994 18.081C4.55994 18.101 4.49994 18.131 4.43994 18.171C4.38995 18.211 4.33995 18.251 4.28995 18.291C4.24996 18.3411 4.20996 18.3911 4.16996 18.4411C4.12997 18.5011 4.09997 18.5611 4.07997 18.6211C4.04998 18.6811 4.02998 18.7411 4.01999 18.8011C4.00999 18.8711 4 18.9311 4 19.0011C4 19.0711 4.01001 19.1311 4.02001 19.2011C4.03002 19.2611 4.05002 19.3211 4.08003 19.3811C4.10003 19.4411 4.13003 19.5011 4.17004 19.5611C4.21004 19.6111 4.25004 19.6611 4.29005 19.711C4.34005 19.751 4.39005 19.791 4.44006 19.831C4.50006 19.871 4.56006 19.901 4.62006 19.921C4.68006 19.951 4.74006 19.971 4.80007 19.981C4.87007 19.991 4.93007 20.001 5.00007 20.001L20.0001 20C20.0701 20 20.1301 19.99 20.2001 19.98C20.2601 19.97 20.3201 19.95 20.3801 19.92C20.4401 19.9 20.5001 19.87 20.5601 19.83C20.6101 19.79 20.66 19.75 20.71 19.71C20.75 19.66 20.79 19.6099 20.83 19.5599C20.87 19.4999 20.9 19.4399 20.92 19.3799C20.95 19.3199 20.97 19.2599 20.98 19.1999C20.99 19.1299 21 19.0699 21 18.9999C21 18.9299 20.99 18.8699 20.98 18.7999C20.97 18.7399 20.95 18.6799 20.92 18.6199C20.9 18.5599 20.87 18.4999 20.83 18.4399C20.79 18.3899 20.75 18.34 20.71 18.29C20.66 18.25 20.6099 18.21 20.5599 18.17C20.4999 18.13 20.4399 18.1 20.3799 18.08C20.3199 18.05 20.2599 18.03 20.1999 18.02C20.1299 18.01 20.0699 18 19.9999 18L4.99993 18.001Z"></path>
                        <path id="矩形 3" fill-rule="evenodd" style="fill:#FFFFFF" opacity="1"
                              d="M12 9L14 9C14.55 9 15 8.55 15 8L15 6C15 5.45 14.55 5 14 5L12 5C11.45 5 11 5.45 11 6L11 8C11 8.55 11.45 9 12 9Z"></path>
                        <path id="矩形 3" fill-rule="evenodd" style="fill:#FFFFFF" opacity="1"
                              d="M7 15L9 15C9.55 15 10 14.55 10 14L10 12C10 11.45 9.55 11 9 11L7 11C6.45 11 6 11.45 6 12L6 14C6 14.55 6.45 15 7 15Z"></path>
                        <path id="矩形 3" fill-rule="evenodd" style="fill:#FFFFFF" opacity="1"
                              d="M16 21L18 21C18.55 21 19 20.55 19 20L19 18C19 17.45 18.55 17 18 17L16 17C15.45 17 15 17.45 15 18L15 20C15 20.55 15.45 21 16 21Z"></path>
                    </g>
                </g>
            </g>
            <g opacity="1" transform="translate(50 0)  rotate(0)">
                <mask id="bg-mask-3" fill="white">
                    <use transform="translate(0 0)  rotate(0)" xlink:href="#path_3"></use>
                </mask>
                <g mask="url(#bg-mask-3)">
                    <g opacity="1" transform="translate(0 0)  rotate(0)">
                        <path id="排除重叠" fill-rule="evenodd" style="fill:#22331F" opacity="1"
                              d="M18,22h-10c-2.21,0 -4,-1.79 -4,-4v-10c0,-2.21 1.79,-4 4,-4h10c2.21,0 4,1.79 4,4v10c0,2.21 -1.79,4 -4,4zM12,6h-2v4h-2v2h4zM8,8h-2v2h2zM14,16h2v4h2v-2h2v-4h-2v2h-2v-2h-2z"></path>
                    </g>
                    <g opacity="1" transform="translate(0 25)  rotate(0)">
                        <path id="排除重叠" fill-rule="evenodd" style="fill:#FFFFFF" opacity="1"
                              d="M18,22h-10c-2.21,0 -4,-1.79 -4,-4v-10c0,-2.21 1.79,-4 4,-4h10c2.21,0 4,1.79 4,4v10c0,2.21 -1.79,4 -4,4zM12,6h-2v4h-2v2h4zM8,8h-2v2h2zM14,16h2v4h2v-2h2v-4h-2v2h-2v-2h-2z"></path>
                    </g>
                </g>
            </g>
            <g opacity="1" transform="translate(75 0)  rotate(0)">
                <mask id="bg-mask-4" fill="white">
                    <use transform="translate(0 0)  rotate(0)" xlink:href="#path_4"></use>
                </mask>
                <g mask="url(#bg-mask-4)">
                    <g opacity="1" transform="translate(0 0)  rotate(0)">
                        <path id="并集" fill-rule="evenodd" style="fill:#22331F" opacity="1"
                              d="M17.56,14.15l-3.756,4.35h7.696c0.04913,0 0.09813,0.0024 0.147,0.0072c0.04893,0.0048 0.09747,0.012 0.1456,0.0216c0.0482,0.0096 0.0958,0.02153 0.1428,0.0358c0.047,0.01427 0.0932,0.0308 0.1386,0.0496c0.0454,0.0188 0.08977,0.03977 0.1331,0.0629c0.04333,0.0232 0.08543,0.04843 0.1263,0.0757c0.0408,0.02727 0.0802,0.0565 0.1182,0.0877c0.038,0.03113 0.07437,0.06407 0.1091,0.0988c0.03473,0.03473 0.06767,0.0711 0.0988,0.1091c0.0312,0.038 0.06043,0.0774 0.0877,0.1182c0.02727,0.04087 0.0525,0.08297 0.0757,0.1263c0.02313,0.04333 0.0441,0.0877 0.0629,0.1331c0.0188,0.0454 0.03533,0.0916 0.0496,0.1386c0.01427,0.047 0.0262,0.0946 0.0358,0.1428c0.0096,0.04813 0.0168,0.09667 0.0216,0.1456c0.0048,0.04887 0.0072,0.09787 0.0072,0.147c0,0.04913 -0.0024,0.09813 -0.0072,0.147c-0.0048,0.04893 -0.012,0.09747 -0.0216,0.1456c-0.0096,0.0482 -0.02153,0.0958 -0.0358,0.1428c-0.01427,0.047 -0.0308,0.0932 -0.0496,0.1386c-0.0188,0.0454 -0.03977,0.08977 -0.0629,0.1331c-0.0232,0.04333 -0.04843,0.08543 -0.0757,0.1263c-0.02727,0.0408 -0.0565,0.0802 -0.0877,0.1182c-0.03113,0.038 -0.06407,0.07437 -0.0988,0.1091c-0.03473,0.03473 -0.0711,0.06767 -0.1091,0.0988c-0.038,0.0312 -0.0774,0.06043 -0.1182,0.0877c-0.04087,0.02727 -0.08297,0.0525 -0.1263,0.0757c-0.04333,0.02313 -0.0877,0.0441 -0.1331,0.0629c-0.0454,0.0188 -0.0916,0.03533 -0.1386,0.0496c-0.047,0.01427 -0.0946,0.0262 -0.1428,0.0358c-0.04813,0.0096 -0.09667,0.0168 -0.1456,0.0216c-0.04887,0.0048 -0.09787,0.0072 -0.147,0.0072h-17c-0.04913,0 -0.09814,-0.0024 -0.14703,-0.0072c-0.04889,-0.0048 -0.09742,-0.012 -0.14561,-0.0216c-0.04818,-0.0096 -0.09578,-0.02153 -0.14279,-0.0358c-0.04701,-0.01427 -0.0932,-0.0308 -0.13859,-0.0496c-0.04539,-0.0188 -0.08975,-0.03977 -0.13308,-0.0629c-0.04332,-0.0232 -0.0854,-0.04843 -0.12625,-0.0757c-0.04085,-0.02727 -0.08027,-0.0565 -0.11824,-0.0877c-0.03797,-0.03113 -0.07433,-0.06407 -0.10907,-0.0988c-0.03474,-0.03473 -0.06769,-0.0711 -0.09886,-0.1091c-0.03116,-0.038 -0.06039,-0.0774 -0.08768,-0.1182c-0.0273,-0.04087 -0.05253,-0.08297 -0.07568,-0.1263c-0.02316,-0.04333 -0.04414,-0.0877 -0.06294,-0.1331c-0.0188,-0.0454 -0.03533,-0.0916 -0.04959,-0.1386c-0.01426,-0.047 -0.02618,-0.0946 -0.03577,-0.1428c-0.00958,-0.04813 -0.01678,-0.09667 -0.0216,-0.1456c-0.00481,-0.04887 -0.00722,-0.09787 -0.00722,-0.147c0,-0.04913 0.00241,-0.09813 0.00722,-0.147c0.00482,-0.04893 0.01202,-0.09747 0.0216,-0.1456c0.00959,-0.0482 0.02151,-0.0958 0.03577,-0.1428c0.01426,-0.047 0.03079,-0.0932 0.04959,-0.1386c0.0188,-0.0454 0.03978,-0.08977 0.06294,-0.1331c0.02315,-0.04333 0.04838,-0.08543 0.07568,-0.1263c0.02729,-0.0408 0.05652,-0.0802 0.08768,-0.1182c0.03117,-0.038 0.06412,-0.07437 0.09886,-0.1091c0.03474,-0.03473 0.0711,-0.06767 0.10907,-0.0988c0.03797,-0.0312 0.07739,-0.06043 0.11824,-0.0877c0.04085,-0.02727 0.08293,-0.0525 0.12625,-0.0757c0.04333,-0.02313 0.08769,-0.0441 0.13308,-0.0629c0.04539,-0.0188 0.09158,-0.03533 0.13859,-0.0496c0.04701,-0.01427 0.09461,-0.0262 0.14279,-0.0358c0.04819,-0.0096 0.09672,-0.0168 0.14561,-0.0216c0.04889,-0.0048 0.0979,-0.0072 0.14703,-0.0072h6.696l-3.756,-4.35c-0.55,-0.65 -0.1,-1.64 0.75,-1.65h2.81v-6.5c0,-0.04913 0.0024,-0.09814 0.0072,-0.14703c0.00487,-0.04889 0.01207,-0.09742 0.0216,-0.14561c0.0096,-0.04818 0.02153,-0.09578 0.0358,-0.14279c0.01427,-0.04701 0.0308,-0.09321 0.0496,-0.1386c0.0188,-0.04539 0.03977,-0.08974 0.0629,-0.13307c0.0232,-0.04332 0.04843,-0.0854 0.0757,-0.12625c0.02727,-0.04085 0.0565,-0.08027 0.0877,-0.11824c0.03113,-0.03797 0.06407,-0.07433 0.0988,-0.10907c0.0348,-0.03474 0.07117,-0.06769 0.1091,-0.09886c0.038,-0.03116 0.0774,-0.06039 0.1182,-0.08768c0.04087,-0.0273 0.08297,-0.05253 0.1263,-0.07568c0.04333,-0.02316 0.0877,-0.04414 0.1331,-0.06294c0.0454,-0.0188 0.0916,-0.03533 0.1386,-0.04959c0.047,-0.01426 0.0946,-0.02618 0.1428,-0.03577c0.04813,-0.00958 0.09667,-0.01678 0.1456,-0.0216c0.04887,-0.00481 0.09787,-0.00722 0.147,-0.00722c0.04913,0 0.09813,0.00241 0.147,0.00722c0.04893,0.00482 0.09747,0.01202 0.1456,0.0216c0.0482,0.00959 0.0958,0.02151 0.1428,0.03577c0.047,0.01426 0.0932,0.03079 0.1386,0.04959c0.0454,0.0188 0.08977,0.03978 0.1331,0.06294c0.04333,0.02315 0.08543,0.04838 0.1263,0.07568c0.0408,0.02729 0.0802,0.05652 0.1182,0.08768c0.038,0.03117 0.07437,0.06412 0.1091,0.09886c0.03473,0.03474 0.06767,0.0711 0.0988,0.10907c0.0312,0.03797 0.06043,0.07739 0.0877,0.11824c0.02727,0.04085 0.0525,0.08293 0.0757,0.12625c0.02313,0.04333 0.0441,0.08768 0.0629,0.13307c0.0188,0.04539 0.03533,0.09159 0.0496,0.1386c0.01427,0.04701 0.0262,0.09461 0.0358,0.14279c0.0096,0.04819 0.0168,0.09672 0.0216,0.14561c0.0048,0.04889 0.0072,0.0979 0.0072,0.14703v6.5h2.81c0.85,0.01 1.3,1 0.75,1.65z"></path>
                    </g>
                    <g opacity="1" transform="translate(0 25)  rotate(0)">
                        <path id="并集" fill-rule="evenodd" style="fill:#FFFFFF" opacity="1"
                              d="M17.56,14.15l-3.756,4.35h7.696c0.04913,0 0.09813,0.0024 0.147,0.0072c0.04893,0.0048 0.09747,0.012 0.1456,0.0216c0.0482,0.0096 0.0958,0.02153 0.1428,0.0358c0.047,0.01427 0.0932,0.0308 0.1386,0.0496c0.0454,0.0188 0.08977,0.03977 0.1331,0.0629c0.04333,0.0232 0.08543,0.04843 0.1263,0.0757c0.0408,0.02727 0.0802,0.0565 0.1182,0.0877c0.038,0.03113 0.07437,0.06407 0.1091,0.0988c0.03473,0.03473 0.06767,0.0711 0.0988,0.1091c0.0312,0.038 0.06043,0.0774 0.0877,0.1182c0.02727,0.04087 0.0525,0.08297 0.0757,0.1263c0.02313,0.04333 0.0441,0.0877 0.0629,0.1331c0.0188,0.0454 0.03533,0.0916 0.0496,0.1386c0.01427,0.047 0.0262,0.0946 0.0358,0.1428c0.0096,0.04813 0.0168,0.09667 0.0216,0.1456c0.0048,0.04887 0.0072,0.09787 0.0072,0.147c0,0.04913 -0.0024,0.09813 -0.0072,0.147c-0.0048,0.04893 -0.012,0.09747 -0.0216,0.1456c-0.0096,0.0482 -0.02153,0.0958 -0.0358,0.1428c-0.01427,0.047 -0.0308,0.0932 -0.0496,0.1386c-0.0188,0.0454 -0.03977,0.08977 -0.0629,0.1331c-0.0232,0.04333 -0.04843,0.08543 -0.0757,0.1263c-0.02727,0.0408 -0.0565,0.0802 -0.0877,0.1182c-0.03113,0.038 -0.06407,0.07437 -0.0988,0.1091c-0.03473,0.03473 -0.0711,0.06767 -0.1091,0.0988c-0.038,0.0312 -0.0774,0.06043 -0.1182,0.0877c-0.04087,0.02727 -0.08297,0.0525 -0.1263,0.0757c-0.04333,0.02313 -0.0877,0.0441 -0.1331,0.0629c-0.0454,0.0188 -0.0916,0.03533 -0.1386,0.0496c-0.047,0.01427 -0.0946,0.0262 -0.1428,0.0358c-0.04813,0.0096 -0.09667,0.0168 -0.1456,0.0216c-0.04887,0.0048 -0.09787,0.0072 -0.147,0.0072h-17c-0.04913,0 -0.09814,-0.0024 -0.14703,-0.0072c-0.04889,-0.0048 -0.09742,-0.012 -0.14561,-0.0216c-0.04818,-0.0096 -0.09578,-0.02153 -0.14279,-0.0358c-0.04701,-0.01427 -0.0932,-0.0308 -0.13859,-0.0496c-0.04539,-0.0188 -0.08975,-0.03977 -0.13308,-0.0629c-0.04332,-0.0232 -0.0854,-0.04843 -0.12625,-0.0757c-0.04085,-0.02727 -0.08027,-0.0565 -0.11824,-0.0877c-0.03797,-0.03113 -0.07433,-0.06407 -0.10907,-0.0988c-0.03474,-0.03473 -0.06769,-0.0711 -0.09886,-0.1091c-0.03116,-0.038 -0.06039,-0.0774 -0.08768,-0.1182c-0.0273,-0.04087 -0.05253,-0.08297 -0.07568,-0.1263c-0.02316,-0.04333 -0.04414,-0.0877 -0.06294,-0.1331c-0.0188,-0.0454 -0.03533,-0.0916 -0.04959,-0.1386c-0.01426,-0.047 -0.02618,-0.0946 -0.03577,-0.1428c-0.00958,-0.04813 -0.01678,-0.09667 -0.0216,-0.1456c-0.00481,-0.04887 -0.00722,-0.09787 -0.00722,-0.147c0,-0.04913 0.00241,-0.09813 0.00722,-0.147c0.00482,-0.04893 0.01202,-0.09747 0.0216,-0.1456c0.00959,-0.0482 0.02151,-0.0958 0.03577,-0.1428c0.01426,-0.047 0.03079,-0.0932 0.04959,-0.1386c0.0188,-0.0454 0.03978,-0.08977 0.06294,-0.1331c0.02315,-0.04333 0.04838,-0.08543 0.07568,-0.1263c0.02729,-0.0408 0.05652,-0.0802 0.08768,-0.1182c0.03117,-0.038 0.06412,-0.07437 0.09886,-0.1091c0.03474,-0.03473 0.0711,-0.06767 0.10907,-0.0988c0.03797,-0.0312 0.07739,-0.06043 0.11824,-0.0877c0.04085,-0.02727 0.08293,-0.0525 0.12625,-0.0757c0.04333,-0.02313 0.08769,-0.0441 0.13308,-0.0629c0.04539,-0.0188 0.09158,-0.03533 0.13859,-0.0496c0.04701,-0.01427 0.09461,-0.0262 0.14279,-0.0358c0.04819,-0.0096 0.09672,-0.0168 0.14561,-0.0216c0.04889,-0.0048 0.0979,-0.0072 0.14703,-0.0072h6.696l-3.756,-4.35c-0.55,-0.65 -0.1,-1.64 0.75,-1.65h2.81v-6.5c0,-0.04913 0.0024,-0.09814 0.0072,-0.14703c0.00487,-0.04889 0.01207,-0.09742 0.0216,-0.14561c0.0096,-0.04818 0.02153,-0.09578 0.0358,-0.14279c0.01427,-0.04701 0.0308,-0.09321 0.0496,-0.1386c0.0188,-0.04539 0.03977,-0.08974 0.0629,-0.13307c0.0232,-0.04332 0.04843,-0.0854 0.0757,-0.12625c0.02727,-0.04085 0.0565,-0.08027 0.0877,-0.11824c0.03113,-0.03797 0.06407,-0.07433 0.0988,-0.10907c0.0348,-0.03474 0.07117,-0.06769 0.1091,-0.09886c0.038,-0.03116 0.0774,-0.06039 0.1182,-0.08768c0.04087,-0.0273 0.08297,-0.05253 0.1263,-0.07568c0.04333,-0.02316 0.0877,-0.04414 0.1331,-0.06294c0.0454,-0.0188 0.0916,-0.03533 0.1386,-0.04959c0.047,-0.01426 0.0946,-0.02618 0.1428,-0.03577c0.04813,-0.00958 0.09667,-0.01678 0.1456,-0.0216c0.04887,-0.00481 0.09787,-0.00722 0.147,-0.00722c0.04913,0 0.09813,0.00241 0.147,0.00722c0.04893,0.00482 0.09747,0.01202 0.1456,0.0216c0.0482,0.00959 0.0958,0.02151 0.1428,0.03577c0.047,0.01426 0.0932,0.03079 0.1386,0.04959c0.0454,0.0188 0.08977,0.03978 0.1331,0.06294c0.04333,0.02315 0.08543,0.04838 0.1263,0.07568c0.0408,0.02729 0.0802,0.05652 0.1182,0.08768c0.038,0.03117 0.07437,0.06412 0.1091,0.09886c0.03473,0.03474 0.06767,0.0711 0.0988,0.10907c0.0312,0.03797 0.06043,0.07739 0.0877,0.11824c0.02727,0.04085 0.0525,0.08293 0.0757,0.12625c0.02313,0.04333 0.0441,0.08768 0.0629,0.13307c0.0188,0.04539 0.03533,0.09159 0.0496,0.1386c0.01427,0.04701 0.0262,0.09461 0.0358,0.14279c0.0096,0.04819 0.0168,0.09672 0.0216,0.14561c0.0048,0.04889 0.0072,0.0979 0.0072,0.14703v6.5h2.81c0.85,0.01 1.3,1 0.75,1.65z"></path>
                    </g>
                </g>
            </g>
            <g opacity="1" transform="translate(0 50)  rotate(0)">
                <mask id="bg-mask-5" fill="white">
                    <use transform="translate(0 0)  rotate(0)" xlink:href="#path_5"></use>
                </mask>
                <g mask="url(#bg-mask-5)">
                    <g opacity="1" transform="translate(0 0)  rotate(0)">
                        <path id="矩形 10 (轮廓)" fill-rule="evenodd" style="fill:#22331F" opacity="1"
                              d="M19,16h-13c-1.1,0 -2,-0.9 -2,-2v-8c0,-1.1 0.9,-2 2,-2h13c1.1,0 2,0.9 2,2v8c0,1.1 -0.9,2 -2,2zM19,14v-8h-13v8z"></path>
                        <path id="三角形 2 (轮廓)" fill-rule="evenodd" style="fill:#22331F" opacity="1"
                              d="M9.3758,19.5725c-0.26,-0.23 -0.51,-0.66 -0.59,-0.98c-0.13,-0.56 0.15,-1.53 0.8,-1.94l1.31,-0.83c0.45,-0.28 1.1,-0.46 1.6,-0.46c0.51,0 1.16,0.18 1.61,0.46l1.3,0.83c0.66,0.41 0.94,1.38 0.81,1.94c-0.08,0.32 -0.33,0.75 -0.59,0.98c-0.26,0.22 -0.77,0.43 -1.18,0.43h-3.9c-0.4,0 -0.91,-0.21 -1.17,-0.43zM13.7958,18.0025l-0.76,-0.49c-0.2,-0.12 -0.3,-0.15 -0.54,-0.15c-0.23,0 -0.33,0.03 -0.53,0.15l-0.77,0.49z"></path>
                    </g>
                    <g opacity="1" transform="translate(0 25)  rotate(0)">
                        <path id="矩形 10 (轮廓)" fill-rule="evenodd" style="fill:#FFFFFF" opacity="1"
                              d="M19,16h-13c-1.1,0 -2,-0.9 -2,-2v-8c0,-1.1 0.9,-2 2,-2h13c1.1,0 2,0.9 2,2v8c0,1.1 -0.9,2 -2,2zM19,14v-8h-13v8z"></path>
                        <path id="三角形 2 (轮廓)" fill-rule="evenodd" style="fill:#FFFFFF" opacity="1"
                              d="M9.3758,19.5725c-0.26,-0.23 -0.51,-0.66 -0.59,-0.98c-0.13,-0.56 0.15,-1.53 0.8,-1.94l1.31,-0.83c0.45,-0.28 1.1,-0.46 1.6,-0.46c0.51,0 1.16,0.18 1.61,0.46l1.3,0.83c0.66,0.41 0.94,1.38 0.81,1.94c-0.08,0.32 -0.33,0.75 -0.59,0.98c-0.26,0.22 -0.77,0.43 -1.18,0.43h-3.9c-0.4,0 -0.91,-0.21 -1.17,-0.43zM13.7958,18.0025l-0.76,-0.49c-0.2,-0.12 -0.3,-0.15 -0.54,-0.15c-0.23,0 -0.33,0.03 -0.53,0.15l-0.77,0.49z"></path>
                    </g>
                </g>
            </g>
            <g opacity="1" transform="translate(25 50)  rotate(0)">
                <mask id="bg-mask-6" fill="white">
                    <use transform="translate(0 0)  rotate(0)" xlink:href="#path_6"></use>
                </mask>
                <g mask="url(#bg-mask-6)">
                    <g opacity="1" transform="translate(0 0)  rotate(0)">
                        <path id="矩形 12 (轮廓)" fill-rule="evenodd" style="fill:#22331F" opacity="1"
                              d="M15,21h-5c-3.31,0 -6,-2.69 -6,-6v-5c0,-3.31 2.69,-6 6,-6h5c3.31,0 6,2.69 6,6v5c0,3.31 -2.69,6 -6,6zM15,19c0.54,0 1.06,-0.1 1.55,-0.31c0.48,-0.21 0.91,-0.49 1.28,-0.86c0.37,-0.37 0.65,-0.8 0.86,-1.28c0.21,-0.49 0.31,-1.01 0.31,-1.55v-5c0,-0.54 -0.1,-1.06 -0.31,-1.55c-0.21,-0.48 -0.49,-0.91 -0.86,-1.28c-0.37,-0.37 -0.8,-0.65 -1.28,-0.86c-0.49,-0.21 -1.01,-0.31 -1.55,-0.31h-5c-0.54,0 -1.06,0.1 -1.55,0.31c-0.48,0.21 -0.91,0.49 -1.28,0.86c-0.37,0.37 -0.65,0.8 -0.86,1.28c-0.21,0.49 -0.31,1.01 -0.31,1.55v5c0,0.54 0.1,1.06 0.31,1.55c0.21,0.48 0.49,0.91 0.86,1.28c0.37,0.37 0.8,0.65 1.28,0.86c0.49,0.21 1.01,0.31 1.55,0.31z"></path>
                        <path id="矩形 13" fill-rule="evenodd" style="fill:#22331F" opacity="1"
                              d="M12 16L14 16L14 14L12 14L12 16Z"></path>
                        <path id="矩形 13" fill-rule="evenodd" style="fill:#22331F" opacity="1"
                              d="M6 16L8 16L8 14L6 14L6 16Z"></path>
                        <path id="矩形 14" fill-rule="evenodd" style="fill:#22331F" opacity="1"
                              d="M14 12L18 12L18 8L14 8L14 12Z"></path>
                        <path id="矩形 14" fill-rule="evenodd" style="fill:#22331F" opacity="1"
                              d="M8 14L12 14L12 12L8 12L8 14Z"></path>
                        <path id="矩形 14" fill-rule="evenodd" style="fill:#22331F" opacity="1"
                              d="M8 18L12 18L12 16L8 16L8 18Z"></path>
                    </g>
                    <g opacity="1" transform="translate(0 25)  rotate(0)">
                        <path id="矩形 12 (轮廓)" fill-rule="evenodd" style="fill:#FFFFFF" opacity="1"
                              d="M15,21h-5c-3.31,0 -6,-2.69 -6,-6v-5c0,-3.31 2.69,-6 6,-6h5c3.31,0 6,2.69 6,6v5c0,3.31 -2.69,6 -6,6zM15,19c0.54,0 1.06,-0.1 1.55,-0.31c0.48,-0.21 0.91,-0.49 1.28,-0.86c0.37,-0.37 0.65,-0.8 0.86,-1.28c0.21,-0.49 0.31,-1.01 0.31,-1.55v-5c0,-0.54 -0.1,-1.06 -0.31,-1.55c-0.21,-0.48 -0.49,-0.91 -0.86,-1.28c-0.37,-0.37 -0.8,-0.65 -1.28,-0.86c-0.49,-0.21 -1.01,-0.31 -1.55,-0.31h-5c-0.54,0 -1.06,0.1 -1.55,0.31c-0.48,0.21 -0.91,0.49 -1.28,0.86c-0.37,0.37 -0.65,0.8 -0.86,1.28c-0.21,0.49 -0.31,1.01 -0.31,1.55v5c0,0.54 0.1,1.06 0.31,1.55c0.21,0.48 0.49,0.91 0.86,1.28c0.37,0.37 0.8,0.65 1.28,0.86c0.49,0.21 1.01,0.31 1.55,0.31z"></path>
                        <path id="矩形 13" fill-rule="evenodd" style="fill:#FFFFFF" opacity="1"
                              d="M12 16L14 16L14 14L12 14L12 16Z"></path>
                        <path id="矩形 13" fill-rule="evenodd" style="fill:#FFFFFF" opacity="1"
                              d="M6 16L8 16L8 14L6 14L6 16Z"></path>
                        <path id="矩形 14" fill-rule="evenodd" style="fill:#FFFFFF" opacity="1"
                              d="M14 12L18 12L18 8L14 8L14 12Z"></path>
                        <path id="矩形 14" fill-rule="evenodd" style="fill:#FFFFFF" opacity="1"
                              d="M8 14L12 14L12 12L8 12L8 14Z"></path>
                        <path id="矩形 14" fill-rule="evenodd" style="fill:#FFFFFF" opacity="1"
                              d="M8 18L12 18L12 16L8 16L8 18Z"></path>
                    </g>
                </g>
            </g>
            <g opacity="1" transform="translate(50 50)  rotate(0)">
                <mask id="bg-mask-7" fill="white">
                    <use transform="translate(0 0)  rotate(0)" xlink:href="#path_7"></use>
                </mask>
                <g mask="url(#bg-mask-7)">
                    <g opacity="1" transform="translate(0 0)  rotate(0)">
                        <path id="矩形 16" fill-rule="evenodd" style="fill:#22331F" opacity="1"
                              d="M9 11L16 11L16 4L9 4L9 11Z"></path>
                        <path id="矩形 17" fill-rule="evenodd" style="fill:#22331F" opacity="1"
                              d="M4 22L21 22L21 14L4 14L4 22Z"></path>
                    </g>
                    <g opacity="1" transform="translate(0 25)  rotate(0)">
                        <path id="矩形 16" fill-rule="evenodd" style="fill:#FFFFFF" opacity="1"
                              d="M9 11L16 11L16 4L9 4L9 11Z"></path>
                        <path id="矩形 17" fill-rule="evenodd" style="fill:#FFFFFF" opacity="1"
                              d="M4 22L21 22L21 14L4 14L4 22Z"></path>
                    </g>
                </g>
            </g>
            <g opacity="1" transform="translate(75 50)  rotate(0)">
                <mask id="bg-mask-8" fill="white">
                    <use transform="translate(0 0)  rotate(0)" xlink:href="#path_8"></use>
                </mask>
                <g mask="url(#bg-mask-8)">
                    <g opacity="1" transform="translate(0 0)  rotate(0)">
                        <g opacity="1" transform="translate(4 4)  rotate(0)">
                            <path id="路径 1 (轮廓)" fill-rule="evenodd" style="fill:#22331F" opacity="1"
                                  d="M6 2C6.07 2 6.13 1.99 6.2 1.98C6.26 1.97 6.32 1.95 6.38 1.92C6.44 1.9 6.5 1.87 6.56 1.83C6.61 1.79 6.66 1.75 6.71 1.71C6.75 1.66 6.79 1.61 6.83 1.56C6.87 1.5 6.9 1.44 6.92 1.38C6.95 1.32 6.97 1.26 6.98 1.2C6.99 1.13 7 1.07 7 1C7 0.93 6.99 0.87 6.98 0.8C6.97 0.74 6.95 0.68 6.92 0.62C6.9 0.56 6.87 0.5 6.83 0.44C6.79 0.39 6.75 0.34 6.71 0.29C6.66 0.25 6.61 0.21 6.56 0.17C6.5 0.13 6.44 0.1 6.38 0.08C6.32 0.05 6.26 0.03 6.2 0.02C6.13 0.01 6.07 0 6 0L1 0C0.93 0 0.87 0.01 0.8 0.02C0.74 0.03 0.68 0.05 0.62 0.08C0.56 0.1 0.5 0.13 0.44 0.17C0.39 0.21 0.34 0.25 0.29 0.29C0.25 0.34 0.21 0.39 0.17 0.44C0.13 0.5 0.1 0.56 0.08 0.62C0.05 0.68 0.03 0.74 0.02 0.8C0.01 0.87 0 0.93 0 1L0 6C0 6.07 0.01 6.13 0.02 6.2C0.03 6.26 0.05 6.32 0.08 6.38C0.1 6.44 0.13 6.5 0.17 6.56C0.21 6.61 0.25 6.66 0.29 6.71C0.34 6.75 0.39 6.79 0.44 6.83C0.5 6.87 0.56 6.9 0.62 6.92C0.68 6.95 0.74 6.97 0.8 6.98C0.87 6.99 0.93 7 1 7C1.07 7 1.13 6.99 1.2 6.98C1.26 6.97 1.32 6.95 1.38 6.92C1.44 6.9 1.5 6.87 1.56 6.83C1.61 6.79 1.66 6.75 1.71 6.71C1.75 6.66 1.79 6.61 1.83 6.56C1.87 6.5 1.9 6.44 1.92 6.38C1.95 6.32 1.97 6.26 1.98 6.2C1.99 6.13 2 6.07 2 6L2 2L6 2Z"></path>
                            <path id="路径 1 (轮廓)" fill-rule="evenodd" style="fill:#22331F" opacity="1"
                                  d="M11 2C10.93 2 10.87 1.99 10.8 1.98C10.74 1.97 10.68 1.95 10.62 1.92C10.56 1.9 10.5 1.87 10.44 1.83C10.39 1.79 10.34 1.75 10.29 1.71C10.25 1.66 10.21 1.61 10.17 1.56C10.13 1.5 10.1 1.44 10.08 1.38C10.05 1.32 10.03 1.26 10.02 1.2C10.01 1.13 10 1.07 10 1C10 0.93 10.01 0.87 10.02 0.8C10.03 0.74 10.05 0.68 10.08 0.62C10.1 0.56 10.13 0.5 10.17 0.44C10.21 0.39 10.25 0.34 10.29 0.29C10.34 0.25 10.39 0.21 10.44 0.17C10.5 0.13 10.56 0.1 10.62 0.08C10.68 0.05 10.74 0.03 10.8 0.02C10.87 0.01 10.93 0 11 0L16 0C16.07 0 16.13 0.01 16.2 0.02C16.26 0.03 16.32 0.05 16.38 0.08C16.44 0.1 16.5 0.13 16.56 0.17C16.61 0.21 16.66 0.25 16.71 0.29C16.75 0.34 16.79 0.39 16.83 0.44C16.87 0.5 16.9 0.56 16.92 0.62C16.95 0.68 16.97 0.74 16.98 0.8C16.99 0.87 17 0.93 17 1L17 6C17 6.07 16.99 6.13 16.98 6.2C16.97 6.26 16.95 6.32 16.92 6.38C16.9 6.44 16.87 6.5 16.83 6.56C16.79 6.61 16.75 6.66 16.71 6.71C16.66 6.75 16.61 6.79 16.56 6.83C16.5 6.87 16.44 6.9 16.38 6.92C16.32 6.95 16.26 6.97 16.2 6.98C16.13 6.99 16.07 7 16 7C15.93 7 15.87 6.99 15.8 6.98C15.74 6.97 15.68 6.95 15.62 6.92C15.56 6.9 15.5 6.87 15.44 6.83C15.39 6.79 15.34 6.75 15.29 6.71C15.25 6.66 15.21 6.61 15.17 6.56C15.13 6.5 15.1 6.44 15.08 6.38C15.05 6.32 15.03 6.26 15.02 6.2C15.01 6.13 15 6.07 15 6L15 2L11 2Z"></path>
                            <path id="路径 1 (轮廓)" fill-rule="evenodd" style="fill:#22331F" opacity="1"
                                  d="M6 15C6.07 15 6.13 15.01 6.2 15.02C6.26 15.03 6.32 15.05 6.38 15.08C6.44 15.1 6.5 15.13 6.56 15.17C6.61 15.21 6.66 15.25 6.71 15.29C6.75 15.34 6.79 15.39 6.83 15.44C6.87 15.5 6.9 15.56 6.92 15.62C6.95 15.68 6.97 15.74 6.98 15.8C6.99 15.87 7 15.93 7 16C7 16.07 6.99 16.13 6.98 16.2C6.97 16.26 6.95 16.32 6.92 16.38C6.9 16.44 6.87 16.5 6.83 16.56C6.79 16.61 6.75 16.66 6.71 16.71C6.66 16.75 6.61 16.79 6.56 16.83C6.5 16.87 6.44 16.9 6.38 16.92C6.32 16.95 6.26 16.97 6.2 16.98C6.13 16.99 6.07 17 6 17L1 17C0.93 17 0.87 16.99 0.8 16.98C0.74 16.97 0.68 16.95 0.62 16.92C0.56 16.9 0.5 16.87 0.44 16.83C0.39 16.79 0.34 16.75 0.29 16.71C0.25 16.66 0.21 16.61 0.17 16.56C0.13 16.5 0.1 16.44 0.08 16.38C0.05 16.32 0.03 16.26 0.02 16.2C0.01 16.13 0 16.07 0 16L0 11C0 10.93 0.01 10.87 0.02 10.8C0.03 10.74 0.05 10.68 0.08 10.62C0.1 10.56 0.13 10.5 0.17 10.44C0.21 10.39 0.25 10.34 0.29 10.29C0.34 10.25 0.39 10.21 0.44 10.17C0.5 10.13 0.56 10.1 0.62 10.08C0.68 10.05 0.74 10.03 0.8 10.02C0.87 10.01 0.93 10 1 10C1.07 10 1.13 10.01 1.2 10.02C1.26 10.03 1.32 10.05 1.38 10.08C1.44 10.1 1.5 10.13 1.56 10.17C1.61 10.21 1.66 10.25 1.71 10.29C1.75 10.34 1.79 10.39 1.83 10.44C1.87 10.5 1.9 10.56 1.92 10.62C1.95 10.68 1.97 10.74 1.98 10.8C1.99 10.87 2 10.93 2 11L2 15L6 15Z"></path>
                            <path id="路径 1 (轮廓)" fill-rule="evenodd" style="fill:#22331F" opacity="1"
                                  d="M11 15C10.93 15 10.87 15.01 10.8 15.02C10.74 15.03 10.68 15.05 10.62 15.08C10.56 15.1 10.5 15.13 10.44 15.17C10.39 15.21 10.34 15.25 10.29 15.29C10.25 15.34 10.21 15.39 10.17 15.44C10.13 15.5 10.1 15.56 10.08 15.62C10.05 15.68 10.03 15.74 10.02 15.8C10.01 15.87 10 15.93 10 16C10 16.07 10.01 16.13 10.02 16.2C10.03 16.26 10.05 16.32 10.08 16.38C10.1 16.44 10.13 16.5 10.17 16.56C10.21 16.61 10.25 16.66 10.29 16.71C10.34 16.75 10.39 16.79 10.44 16.83C10.5 16.87 10.56 16.9 10.62 16.92C10.68 16.95 10.74 16.97 10.8 16.98C10.87 16.99 10.93 17 11 17L16 17C16.07 17 16.13 16.99 16.2 16.98C16.26 16.97 16.32 16.95 16.38 16.92C16.44 16.9 16.5 16.87 16.56 16.83C16.61 16.79 16.66 16.75 16.71 16.71C16.75 16.66 16.79 16.61 16.83 16.56C16.87 16.5 16.9 16.44 16.92 16.38C16.95 16.32 16.97 16.26 16.98 16.2C16.99 16.13 17 16.07 17 16L17 11C17 10.93 16.99 10.87 16.98 10.8C16.97 10.74 16.95 10.68 16.92 10.62C16.9 10.56 16.87 10.5 16.83 10.44C16.79 10.39 16.75 10.34 16.71 10.29C16.66 10.25 16.61 10.21 16.56 10.17C16.5 10.13 16.44 10.1 16.38 10.08C16.32 10.05 16.26 10.03 16.2 10.02C16.13 10.01 16.07 10 16 10C15.93 10 15.87 10.01 15.8 10.02C15.74 10.03 15.68 10.05 15.62 10.08C15.56 10.1 15.5 10.13 15.44 10.17C15.39 10.21 15.34 10.25 15.29 10.29C15.25 10.34 15.21 10.39 15.17 10.44C15.13 10.5 15.1 10.56 15.08 10.62C15.05 10.68 15.03 10.74 15.02 10.8C15.01 10.87 15 10.93 15 11L15 15L11 15Z"></path>
                        </g>
                        <g opacity="1" transform="translate(9.999992370605469 10)  rotate(0)">
                            <path id="矩形 6" fill-rule="evenodd" style="fill:#22331F" opacity="1"
                                  d="M4.00001 4L6.00001 4L6.00001 2L4.00001 2L4.00001 4Z"></path>
                            <path id="矩形 6" fill-rule="evenodd" style="fill:#22331F" opacity="1"
                                  d="M2.00001 6L4.00001 6L4.00001 4L2.00001 4L2.00001 6Z"></path>
                            <path id="矩形 5" fill-rule="evenodd" style="fill:#22331F" opacity="1"
                                  d="M7.62939e-06 4L2.00001 4L2.00001 2L7.62939e-06 2L7.62939e-06 4Z"></path>
                            <path id="矩形 5" fill-rule="evenodd" style="fill:#22331F" opacity="1"
                                  d="M1.19209e-05 2.92097e-16L1.19209e-05 2L4.00002 2L4.00002 0L1.19209e-05 2.92097e-16Z"></path>
                        </g>
                    </g>
                    <g opacity="1" transform="translate(0 25)  rotate(0)">
                        <g opacity="1" transform="translate(4 4)  rotate(0)">
                            <path id="路径 1 (轮廓)" fill-rule="evenodd" style="fill:#FFFFFF" opacity="1"
                                  d="M6 2C6.07 2 6.13 1.99 6.2 1.98C6.26 1.97 6.32 1.95 6.38 1.92C6.44 1.9 6.5 1.87 6.56 1.83C6.61 1.79 6.66 1.75 6.71 1.71C6.75 1.66 6.79 1.61 6.83 1.56C6.87 1.5 6.9 1.44 6.92 1.38C6.95 1.32 6.97 1.26 6.98 1.2C6.99 1.13 7 1.07 7 1C7 0.93 6.99 0.87 6.98 0.8C6.97 0.74 6.95 0.68 6.92 0.62C6.9 0.56 6.87 0.5 6.83 0.44C6.79 0.39 6.75 0.34 6.71 0.29C6.66 0.25 6.61 0.21 6.56 0.17C6.5 0.13 6.44 0.1 6.38 0.08C6.32 0.05 6.26 0.03 6.2 0.02C6.13 0.01 6.07 0 6 0L1 0C0.93 0 0.87 0.01 0.8 0.02C0.74 0.03 0.68 0.05 0.62 0.08C0.56 0.1 0.5 0.13 0.44 0.17C0.39 0.21 0.34 0.25 0.29 0.29C0.25 0.34 0.21 0.39 0.17 0.44C0.13 0.5 0.1 0.56 0.08 0.62C0.05 0.68 0.03 0.74 0.02 0.8C0.01 0.87 0 0.93 0 1L0 6C0 6.07 0.01 6.13 0.02 6.2C0.03 6.26 0.05 6.32 0.08 6.38C0.1 6.44 0.13 6.5 0.17 6.56C0.21 6.61 0.25 6.66 0.29 6.71C0.34 6.75 0.39 6.79 0.44 6.83C0.5 6.87 0.56 6.9 0.62 6.92C0.68 6.95 0.74 6.97 0.8 6.98C0.87 6.99 0.93 7 1 7C1.07 7 1.13 6.99 1.2 6.98C1.26 6.97 1.32 6.95 1.38 6.92C1.44 6.9 1.5 6.87 1.56 6.83C1.61 6.79 1.66 6.75 1.71 6.71C1.75 6.66 1.79 6.61 1.83 6.56C1.87 6.5 1.9 6.44 1.92 6.38C1.95 6.32 1.97 6.26 1.98 6.2C1.99 6.13 2 6.07 2 6L2 2L6 2Z"></path>
                            <path id="路径 1 (轮廓)" fill-rule="evenodd" style="fill:#FFFFFF" opacity="1"
                                  d="M11 2C10.93 2 10.87 1.99 10.8 1.98C10.74 1.97 10.68 1.95 10.62 1.92C10.56 1.9 10.5 1.87 10.44 1.83C10.39 1.79 10.34 1.75 10.29 1.71C10.25 1.66 10.21 1.61 10.17 1.56C10.13 1.5 10.1 1.44 10.08 1.38C10.05 1.32 10.03 1.26 10.02 1.2C10.01 1.13 10 1.07 10 1C10 0.93 10.01 0.87 10.02 0.8C10.03 0.74 10.05 0.68 10.08 0.62C10.1 0.56 10.13 0.5 10.17 0.44C10.21 0.39 10.25 0.34 10.29 0.29C10.34 0.25 10.39 0.21 10.44 0.17C10.5 0.13 10.56 0.1 10.62 0.08C10.68 0.05 10.74 0.03 10.8 0.02C10.87 0.01 10.93 0 11 0L16 0C16.07 0 16.13 0.01 16.2 0.02C16.26 0.03 16.32 0.05 16.38 0.08C16.44 0.1 16.5 0.13 16.56 0.17C16.61 0.21 16.66 0.25 16.71 0.29C16.75 0.34 16.79 0.39 16.83 0.44C16.87 0.5 16.9 0.56 16.92 0.62C16.95 0.68 16.97 0.74 16.98 0.8C16.99 0.87 17 0.93 17 1L17 6C17 6.07 16.99 6.13 16.98 6.2C16.97 6.26 16.95 6.32 16.92 6.38C16.9 6.44 16.87 6.5 16.83 6.56C16.79 6.61 16.75 6.66 16.71 6.71C16.66 6.75 16.61 6.79 16.56 6.83C16.5 6.87 16.44 6.9 16.38 6.92C16.32 6.95 16.26 6.97 16.2 6.98C16.13 6.99 16.07 7 16 7C15.93 7 15.87 6.99 15.8 6.98C15.74 6.97 15.68 6.95 15.62 6.92C15.56 6.9 15.5 6.87 15.44 6.83C15.39 6.79 15.34 6.75 15.29 6.71C15.25 6.66 15.21 6.61 15.17 6.56C15.13 6.5 15.1 6.44 15.08 6.38C15.05 6.32 15.03 6.26 15.02 6.2C15.01 6.13 15 6.07 15 6L15 2L11 2Z"></path>
                            <path id="路径 1 (轮廓)" fill-rule="evenodd" style="fill:#FFFFFF" opacity="1"
                                  d="M6 15C6.07 15 6.13 15.01 6.2 15.02C6.26 15.03 6.32 15.05 6.38 15.08C6.44 15.1 6.5 15.13 6.56 15.17C6.61 15.21 6.66 15.25 6.71 15.29C6.75 15.34 6.79 15.39 6.83 15.44C6.87 15.5 6.9 15.56 6.92 15.62C6.95 15.68 6.97 15.74 6.98 15.8C6.99 15.87 7 15.93 7 16C7 16.07 6.99 16.13 6.98 16.2C6.97 16.26 6.95 16.32 6.92 16.38C6.9 16.44 6.87 16.5 6.83 16.56C6.79 16.61 6.75 16.66 6.71 16.71C6.66 16.75 6.61 16.79 6.56 16.83C6.5 16.87 6.44 16.9 6.38 16.92C6.32 16.95 6.26 16.97 6.2 16.98C6.13 16.99 6.07 17 6 17L1 17C0.93 17 0.87 16.99 0.8 16.98C0.74 16.97 0.68 16.95 0.62 16.92C0.56 16.9 0.5 16.87 0.44 16.83C0.39 16.79 0.34 16.75 0.29 16.71C0.25 16.66 0.21 16.61 0.17 16.56C0.13 16.5 0.1 16.44 0.08 16.38C0.05 16.32 0.03 16.26 0.02 16.2C0.01 16.13 0 16.07 0 16L0 11C0 10.93 0.01 10.87 0.02 10.8C0.03 10.74 0.05 10.68 0.08 10.62C0.1 10.56 0.13 10.5 0.17 10.44C0.21 10.39 0.25 10.34 0.29 10.29C0.34 10.25 0.39 10.21 0.44 10.17C0.5 10.13 0.56 10.1 0.62 10.08C0.68 10.05 0.74 10.03 0.8 10.02C0.87 10.01 0.93 10 1 10C1.07 10 1.13 10.01 1.2 10.02C1.26 10.03 1.32 10.05 1.38 10.08C1.44 10.1 1.5 10.13 1.56 10.17C1.61 10.21 1.66 10.25 1.71 10.29C1.75 10.34 1.79 10.39 1.83 10.44C1.87 10.5 1.9 10.56 1.92 10.62C1.95 10.68 1.97 10.74 1.98 10.8C1.99 10.87 2 10.93 2 11L2 15L6 15Z"></path>
                            <path id="路径 1 (轮廓)" fill-rule="evenodd" style="fill:#FFFFFF" opacity="1"
                                  d="M11 15C10.93 15 10.87 15.01 10.8 15.02C10.74 15.03 10.68 15.05 10.62 15.08C10.56 15.1 10.5 15.13 10.44 15.17C10.39 15.21 10.34 15.25 10.29 15.29C10.25 15.34 10.21 15.39 10.17 15.44C10.13 15.5 10.1 15.56 10.08 15.62C10.05 15.68 10.03 15.74 10.02 15.8C10.01 15.87 10 15.93 10 16C10 16.07 10.01 16.13 10.02 16.2C10.03 16.26 10.05 16.32 10.08 16.38C10.1 16.44 10.13 16.5 10.17 16.56C10.21 16.61 10.25 16.66 10.29 16.71C10.34 16.75 10.39 16.79 10.44 16.83C10.5 16.87 10.56 16.9 10.62 16.92C10.68 16.95 10.74 16.97 10.8 16.98C10.87 16.99 10.93 17 11 17L16 17C16.07 17 16.13 16.99 16.2 16.98C16.26 16.97 16.32 16.95 16.38 16.92C16.44 16.9 16.5 16.87 16.56 16.83C16.61 16.79 16.66 16.75 16.71 16.71C16.75 16.66 16.79 16.61 16.83 16.56C16.87 16.5 16.9 16.44 16.92 16.38C16.95 16.32 16.97 16.26 16.98 16.2C16.99 16.13 17 16.07 17 16L17 11C17 10.93 16.99 10.87 16.98 10.8C16.97 10.74 16.95 10.68 16.92 10.62C16.9 10.56 16.87 10.5 16.83 10.44C16.79 10.39 16.75 10.34 16.71 10.29C16.66 10.25 16.61 10.21 16.56 10.17C16.5 10.13 16.44 10.1 16.38 10.08C16.32 10.05 16.26 10.03 16.2 10.02C16.13 10.01 16.07 10 16 10C15.93 10 15.87 10.01 15.8 10.02C15.74 10.03 15.68 10.05 15.62 10.08C15.56 10.1 15.5 10.13 15.44 10.17C15.39 10.21 15.34 10.25 15.29 10.29C15.25 10.34 15.21 10.39 15.17 10.44C15.13 10.5 15.1 10.56 15.08 10.62C15.05 10.68 15.03 10.74 15.02 10.8C15.01 10.87 15 10.93 15 11L15 15L11 15Z"></path>
                        </g>
                        <g opacity="1" transform="translate(9.999992370605469 10)  rotate(0)">
                            <path id="矩形 6" fill-rule="evenodd" style="fill:#FFFFFF" opacity="1"
                                  d="M4.00001 4L6.00001 4L6.00001 2L4.00001 2L4.00001 4Z"></path>
                            <path id="矩形 6" fill-rule="evenodd" style="fill:#FFFFFF" opacity="1"
                                  d="M2.00001 6L4.00001 6L4.00001 4L2.00001 4L2.00001 6Z"></path>
                            <path id="矩形 5" fill-rule="evenodd" style="fill:#FFFFFF" opacity="1"
                                  d="M7.62939e-06 4L2.00001 4L2.00001 2L7.62939e-06 2L7.62939e-06 4Z"></path>
                            <path id="矩形 5" fill-rule="evenodd" style="fill:#FFFFFF" opacity="1"
                                  d="M1.19209e-05 2.92097e-16L1.19209e-05 2L4.00002 2L4.00002 0L1.19209e-05 2.92097e-16Z"></path>
                        </g>
                    </g>
                </g>
            </g>
            <g opacity="1" transform="translate(0 100)  rotate(0)">
                <mask id="bg-mask-9" fill="white">
                    <use transform="translate(0 0)  rotate(0)" xlink:href="#path_9"></use>
                </mask>
                <g mask="url(#bg-mask-9)">
                    <g opacity="1" transform="translate(0 0)  rotate(0)">
                        <g opacity="1" transform="translate(6 13)  rotate(0)">
                            <path id="矩形 4" fill-rule="evenodd" style="fill:#22331F" opacity="1"
                                  d="M2 6L4 6L4 4L2 4L2 6Z"></path>
                            <path id="矩形 4" fill-rule="evenodd" style="fill:#22331F" opacity="1"
                                  d="M2 2L6 2L6 0L2 0L2 2Z"></path>
                            <path id="矩形 4" fill-rule="evenodd" style="fill:#22331F" opacity="1"
                                  d="M0 4L2 4L2 0L0 0L0 4Z"></path>
                        </g>
                        <path id="直线 3 (轮廓)" fill-rule="evenodd" style="fill:#22331F" opacity="1"
                              d="M14 13.1213L19.0629 8.05844C19.0982 8.02308 19.1265 7.9948 19.1548 7.95237C19.1902 7.91701 19.2184 7.87459 19.2467 7.83216C19.275 7.78974 19.3033 7.74731 19.3245 7.71195C19.3457 7.66246 19.3669 7.61296 19.3882 7.5776C19.4094 7.52811 19.4235 7.48568 19.4306 7.43618C19.4518 7.38668 19.4589 7.33719 19.473 7.29476C19.4801 7.24526 19.4871 7.19577 19.4942 7.14627C19.5013 7.09677 19.5013 7.05434 19.5013 6.99778C19.5013 6.95535 19.5013 6.89878 19.4942 6.84928C19.4871 6.79979 19.4801 6.75029 19.4659 6.70786C19.4589 6.65836 19.4518 6.60887 19.4377 6.56644C19.4164 6.51694 19.4023 6.47452 19.3811 6.42502C19.3669 6.38259 19.3457 6.3331 19.3245 6.29774C19.3033 6.24824 19.275 6.20582 19.2467 6.16339C19.2184 6.12096 19.1902 6.09268 19.1619 6.05025C19.1265 6.0149 19.0982 5.97247 19.0629 5.93712C19.0275 5.90176 18.9851 5.87348 18.9497 5.83812C18.9073 5.80984 18.879 5.78155 18.8366 5.75327C18.7942 5.72498 18.7518 5.6967 18.7023 5.67549C18.6669 5.65427 18.6174 5.63306 18.575 5.61892C18.5255 5.5977 18.4831 5.58356 18.4336 5.56235C18.3911 5.54821 18.3416 5.54114 18.2921 5.53406C18.2497 5.51992 18.2002 5.51285 18.1507 5.50578C18.1012 5.49871 18.0447 5.49871 18.0022 5.49871C17.9457 5.49871 17.9032 5.49871 17.8537 5.50578C17.8042 5.51285 17.7547 5.51992 17.7052 5.52699C17.6628 5.54114 17.6133 5.54821 17.5638 5.56942C17.5143 5.57649 17.4719 5.59063 17.4224 5.61185C17.387 5.63306 17.3375 5.65427 17.288 5.67549C17.2527 5.6967 17.2103 5.72498 17.1678 5.75327C17.1254 5.78155 17.083 5.80984 17.0476 5.84519C17.0052 5.87348 16.9769 5.90176 16.9416 5.93712L11.8787 11L14 13.1213Z"></path>
                        <path id="直线 4 (轮廓)" fill-rule="evenodd" style="fill:#22331F" opacity="1"
                              d="M8.93934 8.06066L16.9367 16.058L19.058 13.9367L11.0607 5.93934L8.93934 8.06066Z"></path>
                    </g>
                    <g opacity="1" transform="translate(0 25)  rotate(0)">
                        <g opacity="1" transform="translate(6 13)  rotate(0)">
                            <path id="矩形 4" fill-rule="evenodd" style="fill:#FFFFFF" opacity="1"
                                  d="M2 6L4 6L4 4L2 4L2 6Z"></path>
                            <path id="矩形 4" fill-rule="evenodd" style="fill:#FFFFFF" opacity="1"
                                  d="M2 2L6 2L6 0L2 0L2 2Z"></path>
                            <path id="矩形 4" fill-rule="evenodd" style="fill:#FFFFFF" opacity="1"
                                  d="M0 4L2 4L2 0L0 0L0 4Z"></path>
                        </g>
                        <path id="直线 3 (轮廓)" fill-rule="evenodd" style="fill:#FFFFFF" opacity="1"
                              d="M14 13.1213L19.0629 8.05844C19.0982 8.02308 19.1265 7.9948 19.1548 7.95237C19.1902 7.91701 19.2184 7.87459 19.2467 7.83216C19.275 7.78974 19.3033 7.74731 19.3245 7.71195C19.3457 7.66246 19.3669 7.61296 19.3882 7.5776C19.4094 7.52811 19.4235 7.48568 19.4306 7.43618C19.4518 7.38668 19.4589 7.33719 19.473 7.29476C19.4801 7.24526 19.4871 7.19577 19.4942 7.14627C19.5013 7.09677 19.5013 7.05434 19.5013 6.99778C19.5013 6.95535 19.5013 6.89878 19.4942 6.84928C19.4871 6.79979 19.4801 6.75029 19.4659 6.70786C19.4589 6.65836 19.4518 6.60887 19.4377 6.56644C19.4164 6.51694 19.4023 6.47452 19.3811 6.42502C19.3669 6.38259 19.3457 6.3331 19.3245 6.29774C19.3033 6.24824 19.275 6.20582 19.2467 6.16339C19.2184 6.12096 19.1902 6.09268 19.1619 6.05025C19.1265 6.0149 19.0982 5.97247 19.0629 5.93712C19.0275 5.90176 18.9851 5.87348 18.9497 5.83812C18.9073 5.80984 18.879 5.78155 18.8366 5.75327C18.7942 5.72498 18.7518 5.6967 18.7023 5.67549C18.6669 5.65427 18.6174 5.63306 18.575 5.61892C18.5255 5.5977 18.4831 5.58356 18.4336 5.56235C18.3911 5.54821 18.3416 5.54114 18.2921 5.53406C18.2497 5.51992 18.2002 5.51285 18.1507 5.50578C18.1012 5.49871 18.0447 5.49871 18.0022 5.49871C17.9457 5.49871 17.9032 5.49871 17.8537 5.50578C17.8042 5.51285 17.7547 5.51992 17.7052 5.52699C17.6628 5.54114 17.6133 5.54821 17.5638 5.56942C17.5143 5.57649 17.4719 5.59063 17.4224 5.61185C17.387 5.63306 17.3375 5.65427 17.288 5.67549C17.2527 5.6967 17.2103 5.72498 17.1678 5.75327C17.1254 5.78155 17.083 5.80984 17.0476 5.84519C17.0052 5.87348 16.9769 5.90176 16.9416 5.93712L11.8787 11L14 13.1213Z"></path>
                        <path id="直线 4 (轮廓)" fill-rule="evenodd" style="fill:#FFFFFF" opacity="1"
                              d="M8.93934 8.06067L16.9367 16.058L19.058 13.9367L11.0607 5.93935L8.93934 8.06067Z"></path>
                    </g>
                </g>
            </g>
            <g opacity="1" transform="translate(25 100)  rotate(0)">
                <mask id="bg-mask-10" fill="white">
                    <use transform="translate(0 0)  rotate(0)" xlink:href="#path_10"></use>
                </mask>
                <g mask="url(#bg-mask-10)">
                    <g opacity="1" transform="translate(0 0)  rotate(0)">
                        <path id="矩形 8 (轮廓)" fill-rule="evenodd" style="fill:#22331F" opacity="1"
                              d="M7,5.5v-1h2v1zM11,5.5v-1h2v1zM15,5.5v-1h2v1zM19,5.5v-1h2v1zM5.5,7h-1v-2h1zM20.5,7h1v2h-1zM5.5,11h-1v-2h1zM20.5,11h1v2h-1zM5.5,15h-1v-2h1zM20.5,15h1v2h-1zM5.5,19h-1v-2h1zM20.5,19h1v2h-1zM7,20.5v1h-2v-1zM11,20.5v1h-2v-1zM15,20.5v1h-2v-1zM19,20.5v1h-2v-1z"></path>
                        <g opacity="1" transform="translate(9 9)  rotate(0)">
                            <path id="矩形 7" fill-rule="evenodd" style="fill:#22331F" opacity="1"
                                  d="M0 2L4 2L4 0L0 0L0 2Z"></path>
                            <path id="矩形 7" fill-rule="evenodd" style="fill:#22331F" opacity="1"
                                  d="M4 8L8 8L8 6L4 6L4 8Z"></path>
                            <path id="矩形 7" fill-rule="evenodd" style="fill:#22331F" opacity="1"
                                  d="M4 4L6 4L6 2L4 2L4 4Z"></path>
                            <path id="矩形 7" fill-rule="evenodd" style="fill:#22331F" opacity="1"
                                  d="M0 4L2 4L2 2L0 2L0 4Z"></path>
                            <path id="矩形 7" fill-rule="evenodd" style="fill:#22331F" opacity="1"
                                  d="M2 6L4 6L4 4L2 4L2 6Z"></path>
                            <path id="矩形 7" fill-rule="evenodd" style="fill:#22331F" opacity="1"
                                  d="M6 6L8 6L8 4L6 4L6 6Z"></path>
                        </g>
                    </g>
                    <g opacity="1" transform="translate(0 25)  rotate(0)">
                        <path id="矩形 8 (轮廓)" fill-rule="evenodd" style="fill:#FFFFFF" opacity="1"
                              d="M7,5.5v-1h2v1zM11,5.5v-1h2v1zM15,5.5v-1h2v1zM19,5.5v-1h2v1zM5.5,7h-1v-2h1zM20.5,7h1v2h-1zM5.5,11h-1v-2h1zM20.5,11h1v2h-1zM5.5,15h-1v-2h1zM20.5,15h1v2h-1zM5.5,19h-1v-2h1zM20.5,19h1v2h-1zM7,20.5v1h-2v-1zM11,20.5v1h-2v-1zM15,20.5v1h-2v-1zM19,20.5v1h-2v-1z"></path>
                        <g opacity="1" transform="translate(9 9)  rotate(0)">
                            <path id="矩形 7" fill-rule="evenodd" style="fill:#FFFFFF" opacity="1"
                                  d="M0 2L4 2L4 0L0 0L0 2Z"></path>
                            <path id="矩形 7" fill-rule="evenodd" style="fill:#FFFFFF" opacity="1"
                                  d="M4 8L8 8L8 6L4 6L4 8Z"></path>
                            <path id="矩形 7" fill-rule="evenodd" style="fill:#FFFFFF" opacity="1"
                                  d="M4 4L6 4L6 2L4 2L4 4Z"></path>
                            <path id="矩形 7" fill-rule="evenodd" style="fill:#FFFFFF" opacity="1"
                                  d="M0 4L2 4L2 2L0 2L0 4Z"></path>
                            <path id="矩形 7" fill-rule="evenodd" style="fill:#FFFFFF" opacity="1"
                                  d="M2 6L4 6L4 4L2 4L2 6Z"></path>
                            <path id="矩形 7" fill-rule="evenodd" style="fill:#FFFFFF" opacity="1"
                                  d="M6 6L8 6L8 4L6 4L6 6Z"></path>
                        </g>
                    </g>
                </g>
            </g>
            <g opacity="1" transform="translate(50 100)  rotate(0)">
                <mask id="bg-mask-11" fill="white">
                    <use transform="translate(0 0)  rotate(0)" xlink:href="#path_11"></use>
                </mask>
                <g mask="url(#bg-mask-11)">
                    <g opacity="1" transform="translate(0 0)  rotate(0)">
                        <path id="直线 5 (轮廓)" fill-rule="evenodd" style="fill:#22331F" opacity="1"
                              d="M20.0121,3.87123zM12.0122,10.8711l7.9999,-6.99987c0.0377,-0.03292 0.0753,-0.06585 0.1195,-0.09125c0.0376,-0.03292 0.0743,-0.05174 0.1185,-0.07714c0.0442,-0.0254 0.0885,-0.05079 0.1327,-0.07619c0.0432,-0.01129 0.094,-0.02917 0.1307,-0.04798c0.0508,-0.01788 0.0941,-0.02916 0.1515,-0.03951c0.0433,-0.01129 0.0931,-0.01505 0.1364,-0.02634c0.0499,-0.00376 0.0997,-0.00753 0.1496,-0.01129c0.0498,-0.00376 0.0997,-0.00752 0.1486,0.00282c0.0499,-0.00376 0.0988,0.00659 0.1477,0.01694c0.0489,0.01034 0.0978,0.02069 0.1468,0.03104c0.0413,0.01693 0.0903,0.02728 0.1317,0.04421c0.0555,0.01788 0.0968,0.03481 0.1448,0.05927c0.0339,0.02352 0.0819,0.04798 0.1233,0.06491c0.0404,0.03104 0.0809,0.06209 0.1213,0.09313c0.0405,0.03104 0.0743,0.05456 0.1073,0.09219c0.0404,0.03104 0.0733,0.06867 0.1063,0.1063c0.0329,0.03763 0.0658,0.07526 0.0912,0.11947c0.0329,0.03763 0.0517,0.07432 0.0771,0.11853c0.0254,0.04422 0.0508,0.08843 0.0762,0.13265c0.0113,0.04327 0.0292,0.09407 0.048,0.13076c0.0179,0.05079 0.0292,0.09407 0.0395,0.15145c0.0113,0.04328 0.0151,0.09313 0.0264,0.13641c0.0037,0.04985 0.0075,0.09971 0.0113,0.14957c0.0037,0.04986 0.0075,0.09972 -0.0029,0.14863c0.0038,0.04986 -0.0066,0.09878 -0.0169,0.1477c-0.0103,0.04892 -0.0207,0.09783 -0.031,0.14675c-0.017,0.04139 -0.0273,0.09031 -0.0443,0.1317c-0.0178,0.0555 -0.0348,0.0969 -0.0592,0.14487c-0.0235,0.03387 -0.048,0.08185 -0.0649,0.12324c-0.0311,0.04045 -0.0621,0.0809 -0.0932,0.12135c-0.031,0.04045 -0.0545,0.07432 -0.0922,0.10724c-0.031,0.04045 -0.0686,0.07338 -0.1063,0.1063l-7.9998,6.99994c-0.0377,0.0329 -0.0753,0.0658 -0.1195,0.0912c-0.0376,0.0329 -0.0743,0.0518 -0.1185,0.0772c-0.0443,0.0254 -0.0885,0.0508 -0.1327,0.0762c-0.0433,0.0112 -0.0941,0.0291 -0.1307,0.0479c-0.0508,0.0179 -0.0941,0.0292 -0.1515,0.0395c-0.0433,0.0113 -0.0931,0.0151 -0.1364,0.0264c-0.0499,0.0037 -0.0997,0.0075 -0.1496,0.0113c-0.0498,0.0037 -0.0997,0.0075 -0.1486,-0.0029c-0.0499,0.0038 -0.0988,-0.0065 -0.1477,-0.0169c-0.0489,-0.0103 -0.0978,-0.0207 -0.1468,-0.031c-0.0414,-0.017 -0.0903,-0.0273 -0.1317,-0.0442c-0.0555,-0.0179 -0.0969,-0.0348 -0.1448,-0.0593c-0.0339,-0.0235 -0.0819,-0.048 -0.1233,-0.0649c-0.0404,-0.0311 -0.0809,-0.0621 -0.1213,-0.0931c-0.0405,-0.0311 -0.0743,-0.0546 -0.1073,-0.0922c-0.0404,-0.0311 -0.0733,-0.0687 -0.1063,-0.1063c-0.0329,-0.0377 -0.0658,-0.0753 -0.0912,-0.1195c-0.0329,-0.0376 -0.0518,-0.0743 -0.0772,-0.1185c-0.0254,-0.0443 -0.0508,-0.0885 -0.0762,-0.1327c-0.0112,-0.0433 -0.0291,-0.0941 -0.0479,-0.1307c-0.0179,-0.0508 -0.0292,-0.0941 -0.0395,-0.1515c-0.0113,-0.0433 -0.0151,-0.0931 -0.0264,-0.1364c-0.0037,-0.0499 -0.0075,-0.0997 -0.0113,-0.1496c-0.0037,-0.0498 -0.0075,-0.0997 0.0029,-0.1486c-0.0038,-0.0499 0.0065,-0.0988 0.0169,-0.1477c0.0103,-0.0489 0.0207,-0.0978 0.031,-0.1468c0.017,-0.0414 0.0273,-0.0903 0.0442,-0.1317c0.0179,-0.0555 0.0349,-0.0969 0.0593,-0.1448c0.0235,-0.0339 0.048,-0.0819 0.0649,-0.1233c0.0311,-0.0404 0.0621,-0.0809 0.0932,-0.1213c0.031,-0.0405 0.0545,-0.0743 0.0921,-0.1073c0.0311,-0.0404 0.0687,-0.0733 0.1063,-0.1063z"></path>
                        <path id="矩形 11" fill-rule="evenodd" style="fill:#22331F" opacity="1"
                              d="M10 13L12 13L12 7L10 7L10 13Z"></path>
                        <path id="矩形 12" fill-rule="evenodd" style="fill:#22331F" opacity="1"
                              d="M6 7L10 7L10 5L6 5L6 7Z"></path>
                        <path id="矩形 12" fill-rule="evenodd" style="fill:#22331F" opacity="1"
                              d="M4 9L8 9L8 7L4 7L4 9Z"></path>
                        <path id="矩形 12" fill-rule="evenodd" style="fill:#22331F" opacity="1"
                              d="M12 21L16 21L16 19L12 19L12 21Z"></path>
                        <path id="矩形 12" fill-rule="evenodd" style="fill:#22331F" opacity="1"
                              d="M16 19L18 19L18 15L16 15L16 19Z"></path>
                        <path id="矩形 12" fill-rule="evenodd" style="fill:#22331F" opacity="1"
                              d="M4 17L6 17L6 9L4 9L4 17Z"></path>
                        <path id="矩形 18" fill-rule="evenodd" style="fill:#22331F" opacity="1"
                              d="M6 19L12 19L12 17L6 17L6 19Z"></path>
                    </g>
                    <g opacity="1" transform="translate(0 25)  rotate(0)">
                        <path id="直线 5 (轮廓)" fill-rule="evenodd" style="fill:#FFFFFF" opacity="1"
                              d="M20.0121,3.87123zM12.0122,10.8711l7.9999,-6.99987c0.0377,-0.03293 0.0753,-0.06585 0.1195,-0.09125c0.0376,-0.03293 0.0743,-0.05174 0.1185,-0.07714c0.0442,-0.0254 0.0885,-0.0508 0.1327,-0.0762c0.0432,-0.01129 0.094,-0.02916 0.1307,-0.04798c0.0508,-0.01787 0.0941,-0.02916 0.1515,-0.03951c0.0433,-0.01129 0.0931,-0.01505 0.1364,-0.02634c0.0499,-0.00376 0.0997,-0.00752 0.1496,-0.01129c0.0498,-0.00376 0.0997,-0.00752 0.1486,0.00282c0.0499,-0.00376 0.0988,0.00659 0.1477,0.01694c0.0489,0.01035 0.0978,0.02069 0.1468,0.03104c0.0413,0.01693 0.0903,0.02728 0.1317,0.04422c0.0555,0.01787 0.0968,0.0348 0.1448,0.05926c0.0339,0.02352 0.0819,0.04798 0.1233,0.06491c0.0404,0.03104 0.0809,0.06209 0.1213,0.09313c0.0405,0.03105 0.0743,0.05456 0.1073,0.09219c0.0404,0.03105 0.0733,0.06867 0.1063,0.1063c0.0329,0.03763 0.0658,0.07526 0.0912,0.11948c0.0329,0.03762 0.0517,0.07431 0.0771,0.11853c0.0254,0.04421 0.0508,0.08842 0.0762,0.13264c0.0113,0.04327 0.0292,0.09407 0.048,0.13076c0.0179,0.0508 0.0292,0.09407 0.0395,0.15145c0.0113,0.04328 0.0151,0.09314 0.0264,0.13641c0.0037,0.04986 0.0075,0.09972 0.0113,0.14957c0.0037,0.04986 0.0075,0.09972 -0.0029,0.14864c0.0038,0.04986 -0.0066,0.09877 -0.0169,0.14769c-0.0103,0.04892 -0.0207,0.09784 -0.031,0.14675c-0.017,0.0414 -0.0273,0.09031 -0.0443,0.1317c-0.0178,0.05551 -0.0348,0.0969 -0.0592,0.14488c-0.0235,0.03386 -0.048,0.08184 -0.0649,0.12323c-0.0311,0.04045 -0.0621,0.0809 -0.0932,0.12135c-0.031,0.04045 -0.0545,0.07432 -0.0922,0.10724c-0.031,0.04046 -0.0686,0.07338 -0.1063,0.10631l-7.9998,6.99994c-0.0377,0.0329 -0.0753,0.0658 -0.1195,0.0912c-0.0376,0.0329 -0.0743,0.0517 -0.1185,0.0771c-0.0443,0.0254 -0.0885,0.0508 -0.1327,0.0762c-0.0433,0.0113 -0.0941,0.0292 -0.1307,0.048c-0.0508,0.0179 -0.0941,0.0292 -0.1515,0.0395c-0.0433,0.0113 -0.0931,0.0151 -0.1364,0.0264c-0.0499,0.0037 -0.0997,0.0075 -0.1496,0.0113c-0.0498,0.0037 -0.0997,0.0075 -0.1486,-0.0029c-0.0499,0.0038 -0.0988,-0.0065 -0.1477,-0.0169c-0.0489,-0.0103 -0.0978,-0.0207 -0.1468,-0.031c-0.0414,-0.017 -0.0903,-0.0273 -0.1317,-0.0442c-0.0555,-0.0179 -0.0969,-0.0349 -0.1448,-0.0593c-0.0339,-0.0235 -0.0819,-0.048 -0.1233,-0.0649c-0.0404,-0.0311 -0.0809,-0.0621 -0.1213,-0.0932c-0.0405,-0.031 -0.0743,-0.0545 -0.1073,-0.0921c-0.0404,-0.0311 -0.0733,-0.0687 -0.1063,-0.1063c-0.0329,-0.0377 -0.0658,-0.0753 -0.0912,-0.1195c-0.0329,-0.0376 -0.0518,-0.0743 -0.0772,-0.1186c-0.0254,-0.0442 -0.0508,-0.0884 -0.0762,-0.1326c-0.0112,-0.0433 -0.0291,-0.0941 -0.0479,-0.1308c-0.0179,-0.0508 -0.0292,-0.094 -0.0395,-0.1514c-0.0113,-0.0433 -0.0151,-0.0931 -0.0264,-0.1364c-0.0037,-0.0499 -0.0075,-0.0997 -0.0113,-0.1496c-0.0037,-0.0498 -0.0075,-0.0997 0.0029,-0.1486c-0.0038,-0.0499 0.0065,-0.0988 0.0169,-0.1477c0.0103,-0.0489 0.0207,-0.0979 0.031,-0.1468c0.017,-0.0414 0.0273,-0.0903 0.0442,-0.1317c0.0179,-0.0555 0.0349,-0.0969 0.0593,-0.1448c0.0235,-0.0339 0.048,-0.0819 0.0649,-0.1233c0.0311,-0.0404 0.0621,-0.0809 0.0932,-0.1213c0.031,-0.0405 0.0545,-0.0743 0.0921,-0.1073c0.0311,-0.0404 0.0687,-0.0733 0.1063,-0.1063z"></path>
                        <path id="矩形 11" fill-rule="evenodd" style="fill:#FFFFFF" opacity="1"
                              d="M10 13L12 13L12 7L10 7L10 13Z"></path>
                        <path id="矩形 12" fill-rule="evenodd" style="fill:#FFFFFF" opacity="1"
                              d="M6 7L10 7L10 5L6 5L6 7Z"></path>
                        <path id="矩形 12" fill-rule="evenodd" style="fill:#FFFFFF" opacity="1"
                              d="M4 9L8 9L8 7L4 7L4 9Z"></path>
                        <path id="矩形 12" fill-rule="evenodd" style="fill:#FFFFFF" opacity="1"
                              d="M12 21L16 21L16 19L12 19L12 21Z"></path>
                        <path id="矩形 12" fill-rule="evenodd" style="fill:#FFFFFF" opacity="1"
                              d="M16 19L18 19L18 15L16 15L16 19Z"></path>
                        <path id="矩形 12" fill-rule="evenodd" style="fill:#FFFFFF" opacity="1"
                              d="M4 17L6 17L6 9L4 9L4 17Z"></path>
                        <path id="矩形 18" fill-rule="evenodd" style="fill:#FFFFFF" opacity="1"
                              d="M6 19L12 19L12 17L6 17L6 19Z"></path>
                    </g>
                </g>
            </g>
            <g opacity="1" transform="translate(25 150)  rotate(0)">
                <mask id="bg-mask-12" fill="white">
                    <use transform="translate(0 0)  rotate(0)" xlink:href="#path_12"></use>
                </mask>
                <g mask="url(#bg-mask-12)">
                    <g opacity="1" transform="translate(0 0)  rotate(0)">
                        <path id="三角形 1" fill-rule="evenodd" style="fill:#22331F" opacity="1"
                              d="M17.74 15.04C19.42 14.19 19.42 11.8 17.74 10.96L10.29 7.24C8.78 6.49 7 7.59 7 9.28L7 16.71C7 18.4 8.78 19.5 10.29 18.75L17.74 15.04Z"></path>
                    </g>
                    <g opacity="1" transform="translate(0 25)  rotate(0)">
                        <path id="三角形 1" fill-rule="evenodd" style="fill:#FFFFFF" opacity="1"
                              d="M17.74 15.04C19.42 14.19 19.42 11.8 17.74 10.96L10.29 7.24C8.78 6.49 7 7.59 7 9.28L7 16.71C7 18.4 8.78 19.5 10.29 18.75L17.74 15.04Z"></path>
                    </g>
                </g>
            </g>
            <g opacity="1" transform="translate(0 150)  rotate(0)">
                <mask id="bg-mask-13" fill="white">
                    <use transform="translate(0 0)  rotate(0)" xlink:href="#path_13"></use>
                </mask>
                <g mask="url(#bg-mask-13)">
                    <g opacity="1" transform="translate(0 0)  rotate(0)">
                        <g opacity="1" transform="translate(4 4)  rotate(0)">
                            <path id="矩形 22 (轮廓)" fill-rule="evenodd" style="fill:#22331F" opacity="1"
                                  d="M13,17h-9c-2.21,0 -4,-1.79 -4,-4v-9c0,-2.21 1.79,-4 4,-4h9c2.21,0 4,1.79 4,4v9c0,2.21 -1.79,4 -4,4zM0.94,4.94v7.12c0,2.21 1.79,4 4,4h7.12c2.21,0 4,-1.79 4,-4v-7.12c0,-2.21 -1.79,-4 -4,-4h-7.12c-2.21,0 -4,1.79 -4,4z"></path>
                            <path id="直线 2 (轮廓)" fill-rule="evenodd" style="fill:#22331F" opacity="1"
                                  d="M0 9L16 9L16 8L0 8L0 9Z"></path>
                            <path id="直线 2 (轮廓)" fill-rule="evenodd" style="fill:#22331F" opacity="1"
                                  d="M0 4L16 4L16 3L0 3L0 4Z"></path>
                            <path id="直线 2 (轮廓)" fill-rule="evenodd" style="fill:#22331F" opacity="1"
                                  d="M0 14L16 14L16 13L0 13L0 14Z"></path>
                            <path id="直线 2 (轮廓)" fill-rule="evenodd" style="fill:#22331F" opacity="1"
                                  d="M8 6.12323e-17L8 16L9 16L9 0L8 6.12323e-17Z"></path>
                            <path id="直线 2 (轮廓)" fill-rule="evenodd" style="fill:#22331F" opacity="1"
                                  d="M13 6.12323e-17L13 16L14 16L14 0L13 6.12323e-17Z"></path>
                            <path id="直线 2 (轮廓)" fill-rule="evenodd" style="fill:#22331F" opacity="1"
                                  d="M3 6.12323e-17L3 16L4 16L4 0L3 6.12323e-17Z"></path>
                        </g>
                    </g>
                    <g opacity="1" transform="translate(0 25)  rotate(0)">
                        <g opacity="1" transform="translate(4 4)  rotate(0)">
                            <path id="矩形 22 (轮廓)" fill-rule="evenodd" style="fill:#FFFFFF" opacity="1"
                                  d="M14,17h-11c-1.66,0 -3,-1.34 -3,-3v-11c0,-1.66 1.34,-3 3,-3h11c1.66,0 3,1.34 3,3v11c0,1.66 -1.34,3 -3,3zM0.94,3.94v9.12c0,1.66 1.34,3 3,3h9.12c1.66,0 3,-1.34 3,-3v-9.12c0,-1.66 -1.34,-3 -3,-3h-9.12c-1.66,0 -3,1.34 -3,3z"></path>
                            <path id="直线 2 (轮廓)" fill-rule="evenodd" style="fill:#FFFFFF" opacity="1"
                                  d="M0 9L16 9L16 8L0 8L0 9Z"></path>
                            <path id="直线 2 (轮廓)" fill-rule="evenodd" style="fill:#FFFFFF" opacity="1"
                                  d="M0 4L16 4L16 3L0 3L0 4Z"></path>
                            <path id="直线 2 (轮廓)" fill-rule="evenodd" style="fill:#FFFFFF" opacity="1"
                                  d="M0 14L16 14L16 13L0 13L0 14Z"></path>
                            <path id="直线 2 (轮廓)" fill-rule="evenodd" style="fill:#FFFFFF" opacity="1"
                                  d="M8 6.12323e-17L8 16L9 16L9 0L8 6.12323e-17Z"></path>
                            <path id="直线 2 (轮廓)" fill-rule="evenodd" style="fill:#FFFFFF" opacity="1"
                                  d="M13 6.12323e-17L13 16L14 16L14 0L13 6.12323e-17Z"></path>
                            <path id="直线 2 (轮廓)" fill-rule="evenodd" style="fill:#FFFFFF" opacity="1"
                                  d="M3 6.12323e-17L3 16L4 16L4 0L3 6.12323e-17Z"></path>
                        </g>
                    </g>
                </g>
            </g>
            <g opacity="1" transform="translate(75 100)  rotate(0)">
                <mask id="bg-mask-14" fill="white">
                    <use transform="translate(0 0)  rotate(0)" xlink:href="#path_14"></use>
                </mask>
                <g mask="url(#bg-mask-14)">
                    <g opacity="1" transform="translate(0 0)  rotate(0)">
                        <path id="矩形 19 (轮廓)" fill-rule="evenodd" style="fill:#22331F" opacity="1"
                              d="M17,21h-9c-2.21,0 -4,-1.79 -4,-4v-9c0,-2.21 1.79,-4 4,-4h9c2.21,0 4,1.79 4,4v9c0,2.21 -1.79,4 -4,4zM17,19c1.1,0 2,-0.9 2,-2v-9c0,-1.1 -0.9,-2 -2,-2h-9c-1.1,0 -2,0.9 -2,2v9c0,1.1 0.9,2 2,2z"></path>
                        <path id="矩形 20 (轮廓)" fill-rule="evenodd" style="fill:#22331F" opacity="1"
                              d="M9,18c-1.1,0 -2,-0.9 -2,-2v-7c0,-1.1 0.9,-2 2,-2h7c1.1,0 2,0.9 2,2v7c0,1.1 -0.9,2 -2,2zM17,16v-7c0,-0.55 -0.45,-1 -1,-1h-7c-0.55,0 -1,0.45 -1,1v7c0,0.55 0.45,1 1,1h7c0.55,0 1,-0.45 1,-1z"></path>
                        <path id="矩形 2" fill-rule="evenodd" style="fill:#22331F" opacity="1"
                              d="M12 16L14 16L14 14L12 14L12 16Z"></path>
                        <path id="矩形 2" fill-rule="evenodd" style="fill:#22331F" opacity="1"
                              d="M10 14L12 14L12 10L10 10L10 14Z"></path>
                        <path id="矩形 2" fill-rule="evenodd" style="fill:#22331F" opacity="1"
                              d="M12 12L16 12L16 10L12 10L12 12Z"></path>
                    </g>
                    <g opacity="1" transform="translate(0 25)  rotate(0)">
                        <path id="矩形 19 (轮廓)" fill-rule="evenodd" style="fill:#FFFFFF" opacity="1"
                              d="M17,21h-9c-2.21,0 -4,-1.79 -4,-4v-9c0,-2.21 1.79,-4 4,-4h9c2.21,0 4,1.79 4,4v9c0,2.21 -1.79,4 -4,4zM17,19c1.1,0 2,-0.9 2,-2v-9c0,-1.1 -0.9,-2 -2,-2h-9c-1.1,0 -2,0.9 -2,2v9c0,1.1 0.9,2 2,2z"></path>
                        <path id="矩形 20 (轮廓)" fill-rule="evenodd" style="fill:#FFFFFF" opacity="1"
                              d="M9,18c-1.1,0 -2,-0.9 -2,-2v-7c0,-1.1 0.9,-2 2,-2h7c1.1,0 2,0.9 2,2v7c0,1.1 -0.9,2 -2,2zM17,16v-7c0,-0.55 -0.45,-1 -1,-1h-7c-0.55,0 -1,0.45 -1,1v7c0,0.55 0.45,1 1,1h7c0.55,0 1,-0.45 1,-1z"></path>
                        <path id="矩形 2" fill-rule="evenodd" style="fill:#FFFFFF" opacity="1"
                              d="M12 16L14 16L14 14L12 14L12 16Z"></path>
                        <path id="矩形 2" fill-rule="evenodd" style="fill:#FFFFFF" opacity="1"
                              d="M10 14L12 14L12 10L10 10L10 14Z"></path>
                        <path id="矩形 2" fill-rule="evenodd" style="fill:#FFFFFF" opacity="1"
                              d="M12 12L16 12L16 10L12 10L12 12Z"></path>
                    </g>
                </g>
            </g>
            <g opacity="1" transform="translate(50 150)  rotate(0)">
                <g opacity="1" transform="translate(0 0)  rotate(0)">
                    <path id="矩形 19" fill-rule="evenodd" style="fill:#22331F" opacity="1"
                          d="M5 15L15 15L15 5L5 5L5 15Z"></path>
                    <path id="矩形 19" fill-rule="evenodd" style="fill:#22331F" opacity="1"
                          d="M10 20L20 20L20 10L10 10L10 20Z"></path>
                </g>
                <g opacity="1" transform="translate(0 25)  rotate(0)">
                    <path id="矩形 19" fill-rule="evenodd" style="fill:#FFFFFF" opacity="1"
                          d="M5 15L15 15L15 5L5 5L5 15Z"></path>
                    <path id="矩形 19" fill-rule="evenodd" style="fill:#FFFFFF" opacity="1"
                          d="M10 20L20 20L20 10L10 10L10 20Z"></path>
                </g>
                <g opacity="1" transform="translate(25 0)  rotate(0)">
                    <path id="矩形 19 (轮廓)" fill-rule="evenodd" style="fill:#22331F" opacity="1"
                          d="M4.5,15.5v-11h11v11zM5.5,5.5v9h9v-9z"></path>
                    <path id="矩形 19 (轮廓)" fill-rule="evenodd" style="fill:#22331F" opacity="1"
                          d="M9.5,20.5v-11h11v11zM10.5,10.5v9h9v-9z"></path>
                    <path id="矩形 20" fill-rule="evenodd" style="fill:#22331F" opacity="1"
                          d="M10 15L15 15L15 10L10 10L10 15Z"></path>
                </g>
                <g opacity="1" transform="translate(25 25)  rotate(0)">
                    <path id="矩形 19 (轮廓)" fill-rule="evenodd" style="fill:#FFFFFF" opacity="1"
                          d="M4.5,15.5v-11h11v11zM5.5,5.5v9h9v-9z"></path>
                    <path id="矩形 19 (轮廓)" fill-rule="evenodd" style="fill:#FFFFFF" opacity="1"
                          d="M9.5,20.5v-11h11v11zM10.5,10.5v9h9v-9z"></path>
                    <path id="矩形 20" fill-rule="evenodd" style="fill:#FFFFFF" opacity="1"
                          d="M10 15L15 15L15 10L10 10L10 15Z"></path>
                </g>
                <g opacity="1" transform="translate(0 50)  rotate(0)">
                    <path id="减去顶层" fill-rule="evenodd" style="fill:#22331F" opacity="1"
                          d="M10,15h-5v-10h10v5h-5z"></path>
                    <path id="矩形 19 (轮廓)" fill-rule="evenodd" style="fill:#22331F" opacity="1"
                          d="M9.5,20.5v-11h11v11zM10.5,10.5v9h9v-9z"></path>
                </g>
                <g opacity="1" transform="translate(0 75)  rotate(0)">
                    <path id="减去顶层" fill-rule="evenodd" style="fill:#FFFFFF" opacity="1"
                          d="M10,15h-5v-10h10v5h-5z"></path>
                    <path id="矩形 19 (轮廓)" fill-rule="evenodd" style="fill:#FFFFFF" opacity="1"
                          d="M9.5,20.5v-11h11v11zM10.5,10.5v9h9v-9z"></path>
                </g>
                <g opacity="1" transform="translate(25 50)  rotate(0)">
                    <path id="排除重叠" fill-rule="evenodd" style="fill:#22331F" opacity="1"
                          d="M10,15h-5v-10h10v5h-5z"></path>
                    <path id="排除重叠" fill-rule="evenodd" style="fill:#22331F" opacity="1"
                          d="M10,15h5v-5h5v10h-10z"></path>
                </g>
                <g opacity="1" transform="translate(25 75)  rotate(0)">
                    <path id="排除重叠" fill-rule="evenodd" style="fill:#FFFFFF" opacity="1"
                          d="M10,15h5v-5h5v10h-10z"></path>
                    <path id="排除重叠" fill-rule="evenodd" style="fill:#FFFFFF" opacity="1"
                          d="M10,15h-5v-10h10v5h-5z"></path>
                </g>
            </g>
            <g opacity="1" transform="translate(0 200)  rotate(0)">
                <mask id="bg-mask-15" fill="white">
                    <use transform="translate(0 0)  rotate(0)" xlink:href="#path_15"></use>
                </mask>
                <g mask="url(#bg-mask-15)">
                    <g opacity="1" transform="translate(0 0)  rotate(0)">
                        <path id="圆形 2 (轮廓)" fill-rule="evenodd" style="fill:#22331F" opacity="1"
                              d="M9.44,8.9248v0c-0.31,0.21 -0.57,0.42 -0.83,0.68v0c-1.04,1.06 -1.61,2.31 -1.61,3.9c0,3.04 2.46,5.5 5.5,5.5c3.04,0 5.5,-2.46 5.5,-5.5c0,-1.58 -0.56,-2.84 -1.61,-3.89c-0.26,-0.27 -0.52,-0.48 -0.83,-0.69v0c-0.07,-0.04 -0.13,-0.1 -0.19,-0.16c-0.05,-0.06 -0.1,-0.13 -0.14,-0.2c-0.04,-0.07 -0.07,-0.15 -0.09,-0.23c-0.02,-0.08 -0.03,-0.16 -0.03,-0.24c0,-0.07 0.01,-0.13 0.02,-0.2c0.01,-0.06 0.03,-0.12 0.06,-0.18c0.02,-0.06 0.05,-0.12 0.09,-0.18c0.04,-0.05 0.08,-0.1 0.12,-0.15c0.05,-0.04 0.1,-0.08 0.16,-0.12c0.05,-0.04 0.11,-0.07 0.17,-0.09c0.06,-0.03 0.12,-0.05 0.19,-0.06c0.06,-0.01 0.13,-0.02 0.19,-0.02c0.11,0 0.21,0.02 0.31,0.05c0.1,0.03 0.2,0.08 0.28,0.14c0.39,0.27 0.78,0.59 1.11,0.91c0,0.01 0,0.01 0.01,0.01v0v0c1.29,1.3 2.18,3.29 2.18,5.3c0,4.14 -3.36,7.5 -7.5,7.5c-4.14,0 -7.5,-3.36 -7.5,-7.5c0,-2.01 0.89,-3.99 2.19,-5.3c0.32,-0.33 0.72,-0.65 1.11,-0.92c0.08,-0.06 0.18,-0.11 0.28,-0.14c0.1,-0.03 0.2,-0.05 0.31,-0.05c0.06,0 0.13,0.01 0.19,0.02c0.07,0.01 0.13,0.03 0.19,0.06c0.06,0.02 0.12,0.05 0.17,0.09c0.06,0.04 0.11,0.08 0.16,0.12c0.04,0.05 0.08,0.1 0.12,0.15c0.04,0.06 0.07,0.12 0.09,0.18c0.03,0.06 0.05,0.12 0.06,0.18c0.01,0.07 0.02,0.13 0.02,0.2c0,0.08 -0.01,0.16 -0.03,0.24c-0.02,0.08 -0.05,0.16 -0.09,0.23c-0.04,0.07 -0.09,0.14 -0.14,0.2c-0.06,0.06 -0.12,0.12 -0.19,0.16zM16.38,9.6048c0.01,0 0.01,0 0.01,0c0,0 0,0 -0.01,0zM16.39,9.6048c0,0 0,0 0,0.01c0,-0.01 0,-0.01 0,-0.01z"></path>
                        <path id="矩形 9" fill-rule="evenodd" style="fill:#CCCCCC" opacity="1"
                              d="M32.5 34L32.5 34C32.78 34 33 33.78 33 33.5L33 25.5C33 25.22 32.78 25 32.5 25L32.5 25C32.22 25 32 25.22 32 25.5L32 33.5C32 33.78 32.22 34 32.5 34Z"></path>
                        <path id="矩形 9 (轮廓)" fill-rule="evenodd" style="fill:#22331F" opacity="1"
                              d="M12.5 14.5C13.05 14.5 13.5 14.05 13.5 13.5L13.5 5.5C13.5 4.95 13.05 4.5 12.5 4.5C11.95 4.5 11.5 4.95 11.5 5.5L11.5 13.5C11.5 14.05 11.95 14.5 12.5 14.5Z"></path>
                    </g>
                    <g opacity="1" transform="translate(0 25)  rotate(0)">
                        <path id="圆形 2 (轮廓)" fill-rule="evenodd" style="fill:#FFFFFF" opacity="1"
                              d="M9.44,8.9248v0c-0.31,0.21 -0.57,0.42 -0.83,0.68v0c-1.04,1.06 -1.61,2.31 -1.61,3.9c0,3.04 2.46,5.5 5.5,5.5c3.04,0 5.5,-2.46 5.5,-5.5c0,-1.58 -0.56,-2.84 -1.61,-3.89c-0.26,-0.27 -0.52,-0.48 -0.83,-0.69v0c-0.07,-0.04 -0.13,-0.1 -0.19,-0.16c-0.05,-0.06 -0.1,-0.13 -0.14,-0.2c-0.04,-0.07 -0.07,-0.15 -0.09,-0.23c-0.02,-0.08 -0.03,-0.16 -0.03,-0.24c0,-0.07 0.01,-0.13 0.02,-0.2c0.01,-0.06 0.03,-0.12 0.06,-0.18c0.02,-0.06 0.05,-0.12 0.09,-0.18c0.04,-0.05 0.08,-0.1 0.12,-0.15c0.05,-0.04 0.1,-0.08 0.16,-0.12c0.05,-0.04 0.11,-0.07 0.17,-0.09c0.06,-0.03 0.12,-0.05 0.19,-0.06c0.06,-0.01 0.13,-0.02 0.19,-0.02c0.11,0 0.21,0.02 0.31,0.05c0.1,0.03 0.2,0.08 0.28,0.14c0.39,0.27 0.78,0.59 1.11,0.91c0,0.01 0,0.01 0.01,0.01v0v0c1.29,1.3 2.18,3.29 2.18,5.3c0,4.14 -3.36,7.5 -7.5,7.5c-4.14,0 -7.5,-3.36 -7.5,-7.5c0,-2.01 0.89,-3.99 2.19,-5.3c0.32,-0.33 0.72,-0.65 1.11,-0.92c0.08,-0.06 0.18,-0.11 0.28,-0.14c0.1,-0.03 0.2,-0.05 0.31,-0.05c0.06,0 0.13,0.01 0.19,0.02c0.07,0.01 0.13,0.03 0.19,0.06c0.06,0.02 0.12,0.05 0.17,0.09c0.06,0.04 0.11,0.08 0.16,0.12c0.04,0.05 0.08,0.1 0.12,0.15c0.04,0.06 0.07,0.12 0.09,0.18c0.03,0.06 0.05,0.12 0.06,0.18c0.01,0.07 0.02,0.13 0.02,0.2c0,0.08 -0.01,0.16 -0.03,0.24c-0.02,0.08 -0.05,0.16 -0.09,0.23c-0.04,0.07 -0.09,0.14 -0.14,0.2c-0.06,0.06 -0.12,0.12 -0.19,0.16zM16.38,9.6048c0.01,0 0.01,0 0.01,0c0,0 0,0 -0.01,0zM16.39,9.6048c0,0 0,0 0,0.01c0,-0.01 0,-0.01 0,-0.01z"></path>
                        <path id="矩形 9" fill-rule="evenodd" style="fill:#CCCCCC" opacity="1"
                              d="M32.5 34L32.5 34C32.78 34 33 33.78 33 33.5L33 25.5C33 25.22 32.78 25 32.5 25L32.5 25C32.22 25 32 25.22 32 25.5L32 33.5C32 33.78 32.22 34 32.5 34Z"></path>
                        <path id="矩形 9 (轮廓)" fill-rule="evenodd" style="fill:#FFFFFF" opacity="1"
                              d="M12.5 14.5C13.05 14.5 13.5 14.05 13.5 13.5L13.5 5.5C13.5 4.95 13.05 4.5 12.5 4.5C11.95 4.5 11.5 4.95 11.5 5.5L11.5 13.5C11.5 14.05 11.95 14.5 12.5 14.5Z"></path>
                    </g>
                </g>
            </g>
            <g opacity="1" transform="translate(25 200)  rotate(0)">
                <mask id="bg-mask-16" fill="white">
                    <use transform="translate(0 0)  rotate(0)" xlink:href="#path_16"></use>
                </mask>
                <g mask="url(#bg-mask-16)">
                    <g opacity="1" transform="translate(0 0)  rotate(0)">
                        <path id="形状" fill-rule="evenodd" style="fill:#22331F" opacity="1"
                              d="M11 15.59L11 18.18C11 19.07 12.08 19.51 12.71 18.88L18.29 13.3C18.68 12.91 18.68 12.27 18.29 11.88L12.71 6.3C12.08 5.67 11 6.11 11 7L11 9.59L7.71 6.3C7.08 5.67 6 6.11 6 7L6 18.18C6 19.07 7.08 19.51 7.71 18.88L11 15.59Z"></path>
                    </g>
                    <g opacity="1" transform="translate(0 25)  rotate(0)">
                        <path id="形状" fill-rule="evenodd" style="fill:#FFFFFF" opacity="1"
                              d="M11 15.59L11 18.18C11 19.07 12.08 19.51 12.71 18.88L18.29 13.3C18.68 12.91 18.68 12.27 18.29 11.88L12.71 6.3C12.08 5.67 11 6.11 11 7L11 9.59L7.71 6.3C7.08 5.67 6 6.11 6 7L6 18.18C6 19.07 7.08 19.51 7.71 18.88L11 15.59Z"></path>
                    </g>
                </g>
            </g>
        </g>
    </g>
    <defs>
        <rect id="path_0" x="0" y="0" width="100" height="250"/>
        <rect id="path_1" x="0" y="0" width="25" height="50"/>
        <rect id="path_2" x="0" y="0" width="25" height="50"/>
        <rect id="path_3" x="0" y="0" width="25" height="50"/>
        <rect id="path_4" x="0" y="0" width="25" height="50"/>
        <rect id="path_5" x="0" y="0" width="25" height="50"/>
        <rect id="path_6" x="0" y="0" width="25" height="50"/>
        <rect id="path_7" x="0" y="0" width="25" height="50"/>
        <rect id="path_8" x="0" y="0" width="25" height="50"/>
        <rect id="path_9" x="0" y="0" width="25" height="50"/>
        <rect id="path_10" x="0" y="0" width="25" height="50"/>
        <rect id="path_11" x="0" y="0" width="25" height="50"/>
        <rect id="path_12" x="0" y="0" width="25" height="50"/>
        <rect id="path_13" x="0" y="0" width="25" height="50"/>
        <rect id="path_14" x="0" y="0" width="25" height="50"/>
        <rect id="path_15" x="0" y="0" width="25" height="50"/>
        <rect id="path_16" x="0" y="0" width="25" height="50"/>
    </defs>
</svg>